<svg xmlns="http://www.w3.org/2000/svg" width="54.314" height="30.877" viewBox="0 0 54.314 30.877">
  <g id="Group_132" data-name="Group 132" transform="translate(-1210.09 -8744.055)">
    <path id="Path_224" data-name="Path 224" d="M1233.28,8758.988a8.132,8.132,0,0,1-2.2,15.827c-5.966.228-11.949.055-18.1.055v-1.278c0-8.149-.012-16.3.018-24.45a3.151,3.151,0,0,0-.778-2.27c-.723-.821-1.357-1.722-2.133-2.722.393-.039.634-.083.876-.084,6.012,0,12.024-.029,18.036.02a13.066,13.066,0,0,1,3.548.5,7.392,7.392,0,0,1,5.509,6.859C1238.242,8755.028,1236.723,8757.468,1233.28,8758.988Zm-13.608,10.042c3.214,0,6.348.1,9.471-.04a3.067,3.067,0,0,0,2.857-3.383c-.023-2.094-1.463-3.455-3.8-3.491-2.669-.041-5.339-.011-8.008,0a3.347,3.347,0,0,0-.517.085Zm.014-12.819c3.094,0,6.123.079,9.145-.039a2.688,2.688,0,0,0,2.491-2.146c.628-2.265-.859-4.12-3.382-4.165-2.233-.039-4.468-.013-6.7-.015h-1.551Z" fill="#fff"/>
    <path id="Path_225" data-name="Path 225" d="M1264.4,8769.025v5.815h-23.439c0-1.715-.032-3.378.025-5.037a2.2,2.2,0,0,1,.547-1.028q6.556-8.919,13.128-17.825c.229-.311.44-.632.771-1.112h-14.427v-5.725h23.135c0,1.732.038,3.4-.029,5.059a2.42,2.42,0,0,1-.615,1.11q-6.7,9.057-13.421,18.1c-.118.159-.225.326-.438.639Z" fill="#fff"/>
  </g>
</svg>
