<svg xmlns="http://www.w3.org/2000/svg" width="39.279" height="39.279" viewBox="0 0 39.279 39.279">
  <g id="Group_1527" data-name="Group 1527" transform="translate(-1258.212 -346.834)">
    <g id="Group_1526" data-name="Group 1526">
      <circle id="Ellipse_60" data-name="Ellipse 60" cx="19.14" cy="19.14" r="19.14" transform="translate(1258.712 347.334)" fill="none" stroke="#c3a26b" stroke-miterlimit="10" stroke-width="1"/>
      <path id="Path_1504" data-name="Path 1504" d="M1286.819,364.105c.375-2.507-1.535-3.855-4.145-4.755l.847-3.4-2.068-.514-.825,3.307c-.543-.136-1.1-.263-1.657-.39l.832-3.329-2.067-.515-.847,3.4c-.45-.1-.893-.2-1.321-.311l0-.011-2.851-.712-.551,2.208s1.535.352,1.5.374a1.1,1.1,0,0,1,.963,1.2l-.964,3.87a1.864,1.864,0,0,1,.215.068l-.219-.054-1.352,5.421a.753.753,0,0,1-.948.491c.021.03-1.5-.375-1.5-.375l-1.026,2.367,2.691.671c.5.125.991.257,1.473.38l-.855,3.436,2.065.514.847-3.4c.565.152,1.113.293,1.649.427l-.845,3.383,2.067.514.856-3.428c3.526.667,6.177.4,7.293-2.791.9-2.567-.044-4.049-1.9-5.015A3.3,3.3,0,0,0,1286.819,364.105Zm-4.726,6.625c-.637,2.568-4.962,1.179-6.364.831l1.137-4.551C1278.268,367.36,1282.762,368.053,1282.093,370.73Zm.64-6.662c-.582,2.336-4.18,1.149-5.347.858l1.029-4.127C1279.581,361.09,1283.341,361.631,1282.733,364.068Z" fill="#c3a26b"/>
    </g>
  </g>
</svg>
