<svg xmlns="http://www.w3.org/2000/svg" width="95.457" height="95.457" viewBox="0 0 95.457 95.457">
  <path id="Icon-bigdata" d="M528.2,1579.378h26.067a4.352,4.352,0,0,0,4.344-4.339V1570.7a4.347,4.347,0,0,0-4.344-4.338H528.2a4.348,4.348,0,0,0-4.345,4.338v4.338a4.352,4.352,0,0,0,4.345,4.339m0-8.677h26.067v4.338H528.2Zm56.417-30.4h-8.689v-17.317a4.322,4.322,0,0,0-4.344-4.344H554.271l-4.345-4.345H510.887a4.321,4.321,0,0,0-4.344,4.345V1540.3h-8.689a4.361,4.361,0,0,0-4.345,4.344v8.689a4.361,4.361,0,0,0,4.345,4.345H502.2v47.734a4.352,4.352,0,0,0,4.345,4.339h69.389a4.353,4.353,0,0,0,4.345-4.339V1557.68h4.344a4.361,4.361,0,0,0,4.345-4.345v-8.689a4.361,4.361,0,0,0-4.345-4.344m-13.033-17.317V1540.3H562.96V1527.33l-4.345-4.345Zm-21.662-2.2,6.487,6.548h-6.487Zm-39.039-2.141h34.695v10.83a2.181,2.181,0,0,0,2.141,2.2h10.892v8.628H510.887Zm65.045,86.773H506.543V1557.68h69.389Zm8.689-52.079H497.854v-8.689h86.767Z" transform="translate(-493.509 -1514.296)" fill="#c3a26b" fill-rule="evenodd"/>
</svg>
