<svg width="69" height="70" viewBox="0 0 69 70" fill="none" xmlns="http://www.w3.org/2000/svg">
<g clip-path="url(#clip0_1776_23429)">
<path d="M44.2146 67.1044C41.0533 68.4809 37.6863 69.3256 34.2496 69.6044C31.2728 68.3246 28.5078 66.5995 26.0496 64.4884V64.4834C25.5306 64.0404 25.0296 63.5924 24.5396 63.1144C21.4606 60.1252 19.0128 56.5484 17.3413 52.5959C15.6698 48.6435 14.8086 44.3958 14.8086 40.1044C14.8086 39.5044 14.8263 38.9084 14.8616 38.3164C16.9673 41.2984 19.3303 44.0901 21.9236 46.6594C22.8676 47.5974 23.8489 48.5137 24.8676 49.4084C32.3966 56.0224 40.7506 60.7834 48.9286 62.5004C49.7085 62.6596 50.4963 62.7778 51.2886 62.8544C58.9636 63.6214 69.3546 61.2734 65.8616 57.1314C71.0886 60.7044 61.3366 68.3144 44.2146 67.1044Z" fill="#C3A26B"/>
<path d="M55.3102 17.1502C55.3095 17.1457 55.3074 17.1415 55.3042 17.1382C53.9058 15.5628 52.3545 14.1301 50.6732 12.8612C53.0949 12.7311 55.4011 11.7847 57.2162 10.1762C53.0127 9.1213 48.6637 8.76854 44.3452 9.13222C44.3342 9.12622 44.3282 9.12022 44.3162 9.11422C43.6612 8.83122 43.0001 8.56522 42.3271 8.32422C35.8506 9.26128 29.8147 12.1537 25.0268 16.6146C20.2389 21.0755 16.9273 26.8921 15.5352 33.2862C18.3318 37.3649 21.6304 41.0757 25.3531 44.3312C31.7792 50.1007 39.4682 54.2836 47.8032 56.5442C49.6632 57.0194 51.5536 57.3666 53.4612 57.5832C53.8972 57.6302 54.3281 57.6712 54.7611 57.6952C52.8261 47.2952 43.7931 43.7182 38.4301 38.8562C34.8601 35.6232 36.6711 26.3832 36.6711 26.3832C37.0711 42.3962 48.1292 34.6832 53.8462 48.8152C54.0201 49.1222 54.2997 49.3555 54.6329 49.4716C54.9661 49.5877 55.3301 49.5787 55.6572 49.4462C57.6872 48.8212 60.1572 50.8512 61.6642 48.0012C62.134 46.5779 62.5016 45.1229 62.7642 43.6472C56.6382 27.8412 60.7032 24.0052 55.3102 17.1502ZM52.0302 25.4982C50.4902 24.0532 52.0012 23.4162 50.1302 20.7672C51.9532 21.9522 52.2002 23.5572 53.0302 24.4012C52.2362 24.3602 52.4782 25.1622 52.0302 25.4982Z" fill="#C3A26B"/>
<path d="M21.7055 68.127C17.8034 66.8384 14.1914 64.798 11.0735 62.121H11.0685C10.5545 61.684 10.0685 61.236 9.58052 60.764C4.68138 56.0004 1.45583 49.779 0.386211 43.0299C-0.683408 36.2809 0.460355 29.367 3.6465 23.322C2.37794 15.278 4.13967 7.04947 8.5905 0.23C8.7795 0.153 8.97452 0.076 9.16252 0C8.75618 0.718695 8.39383 1.4614 8.0775 2.224C5.8115 7.115 5.3105 12.915 6.4015 19.009C7.04636 22.4918 8.11219 25.8834 9.57551 29.109C10.1185 30.319 10.7145 31.528 11.3695 32.726C10.5342 35.8851 10.1176 39.1403 10.1305 42.408C10.1211 49.8309 12.5206 57.0563 16.9685 62.999C18.0575 64.4468 19.255 65.8097 20.5505 67.076C20.9325 67.431 21.3105 67.785 21.7055 68.127Z" fill="white"/>
<path d="M12.7242 28.6953C10.6594 24.9573 9.16204 20.9329 8.28125 16.7543C12.0702 12.6149 16.8907 9.55624 22.2496 7.89127C27.6086 6.2263 33.3137 6.01477 38.7812 7.27832C26.6663 10.5293 17.1022 17.9933 12.7242 28.6953Z" fill="white"/>
</g>
<defs>
<clipPath id="clip0_1776_23429">
<rect width="69" height="70" fill="white"/>
</clipPath>
</defs>
</svg>
