<svg xmlns="http://www.w3.org/2000/svg" width="41.603" height="41.604" viewBox="0 0 41.603 41.604">
  <g id="icon-instagram" transform="translate(-1063.655 -9613.573)">
    <path id="Path_203" data-name="Path 203" d="M1084.457,9654.388h0a20.013,20.013,0,0,1-20.013-20.013h0a20.013,20.013,0,0,1,20.013-20.013h0a20.013,20.013,0,0,1,20.013,20.013h0A20.013,20.013,0,0,1,1084.457,9654.388Z" fill="none" stroke="#c3a26b" stroke-miterlimit="10" stroke-width="1.577"/>
    <g id="Group_123" data-name="Group 123">
      <path id="Path_204" data-name="Path 204" d="M1084.457,9625.379c2.93,0,3.277.011,4.434.064a6.022,6.022,0,0,1,2.038.378,3.626,3.626,0,0,1,2.082,2.082,6.06,6.06,0,0,1,.378,2.038c.053,1.156.064,1.5.064,4.434s-.011,3.277-.064,4.434a6.06,6.06,0,0,1-.378,2.038,3.626,3.626,0,0,1-2.082,2.082,6.022,6.022,0,0,1-2.038.378c-1.157.054-1.5.064-4.434.064s-3.277-.011-4.434-.064a6.022,6.022,0,0,1-2.038-.378,3.619,3.619,0,0,1-2.082-2.082,6.086,6.086,0,0,1-.378-2.038c-.053-1.156-.064-1.5-.064-4.434s.011-3.277.064-4.434a6.086,6.086,0,0,1,.378-2.038,3.619,3.619,0,0,1,2.082-2.082,6.022,6.022,0,0,1,2.038-.378c1.157-.054,1.5-.064,4.434-.064m0-1.977c-2.98,0-3.354.012-4.524.065a8.087,8.087,0,0,0-2.664.51,5.606,5.606,0,0,0-3.209,3.209,8.054,8.054,0,0,0-.51,2.664c-.054,1.171-.066,1.544-.066,4.524s.012,3.354.066,4.524a8.054,8.054,0,0,0,.51,2.664,5.606,5.606,0,0,0,3.209,3.209,8.087,8.087,0,0,0,2.664.51c1.17.054,1.544.065,4.524.065s3.354-.012,4.524-.065a8.087,8.087,0,0,0,2.664-.51,5.607,5.607,0,0,0,3.209-3.209,8.057,8.057,0,0,0,.51-2.664c.054-1.171.066-1.544.066-4.524s-.012-3.354-.066-4.524a8.057,8.057,0,0,0-.51-2.664,5.607,5.607,0,0,0-3.209-3.209,8.087,8.087,0,0,0-2.664-.51c-1.17-.054-1.544-.065-4.524-.065" fill="#c3a26b"/>
      <path id="Path_205" data-name="Path 205" d="M1084.457,9628.74a5.635,5.635,0,1,0,5.635,5.635,5.635,5.635,0,0,0-5.635-5.635m0,9.293a3.658,3.658,0,1,1,3.658-3.658,3.659,3.659,0,0,1-3.658,3.658" fill="#c3a26b"/>
      <path id="Path_206" data-name="Path 206" d="M1091.631,9628.517a1.316,1.316,0,1,1-1.316-1.315,1.317,1.317,0,0,1,1.316,1.315" fill="#c3a26b"/>
    </g>
  </g>
</svg>
