<svg xmlns="http://www.w3.org/2000/svg" width="95.457" height="95.456" viewBox="0 0 95.457 95.456">
  <path id="icon-howworks" d="M1026.762,4371.076H998.247a8.64,8.64,0,0,0-16.766,0H961.656a2.142,2.142,0,1,0,0,4.284h19.825a8.64,8.64,0,0,0,16.766,0h28.515a2.142,2.142,0,0,0,0-4.284m-36.9,6.487a4.344,4.344,0,1,1,4.345-4.345,4.361,4.361,0,0,1-4.345,4.345m36.9-30.351h-6.854a8.6,8.6,0,0,0-8.321-6.547,8.721,8.721,0,0,0-8.383,6.547H961.656a2.142,2.142,0,0,0,0,4.284H1003.2a8.653,8.653,0,0,0,8.383,6.547,8.53,8.53,0,0,0,8.321-6.547h6.854a2.142,2.142,0,0,0,0-4.284m-15.175,6.486a4.345,4.345,0,1,1,4.344-4.344,4.361,4.361,0,0,1-4.344,4.344m15.175-30.35h-37.2a8.64,8.64,0,0,0-16.766,0H961.656a2.142,2.142,0,1,0,0,4.284h11.136a8.64,8.64,0,0,0,16.766,0h37.2a2.142,2.142,0,0,0,0-4.284m-45.587,6.486a4.344,4.344,0,1,1,4.345-4.344,4.361,4.361,0,0,1-4.345,4.344m52.073-28.208H955.169a8.644,8.644,0,0,0-8.689,8.689v78.078a8.644,8.644,0,0,0,8.689,8.689h78.079a8.644,8.644,0,0,0,8.689-8.689v-78.078a8.644,8.644,0,0,0-8.689-8.689m4.344,86.767a4.361,4.361,0,0,1-4.344,4.345H955.169a4.361,4.361,0,0,1-4.344-4.345v-78.078a4.361,4.361,0,0,1,4.344-4.345h78.079a4.361,4.361,0,0,1,4.344,4.345Z" transform="translate(-946.48 -4301.626)" fill="#c3a26b" fill-rule="evenodd"/>
</svg>
