<svg xmlns="http://www.w3.org/2000/svg" width="104.038" height="82.691" viewBox="0 0 104.038 82.691">
  <g id="Icon-aaccpred" transform="translate(-1399.112 -1520.679)">
    <path id="Path_46" data-name="Path 46" d="M1489.489,1558.606v40.454h-64.581V1579.7a2.075,2.075,0,0,0-2.125-2.125h-19.362v-48.883h63.7a8.27,8.27,0,0,1,2.427-4.309h-66.131a4.325,4.325,0,0,0-4.309,4.309v53.132l21.547,21.547h68.83a4.326,4.326,0,0,0,4.309-4.31v-42.477C1492.975,1558.2,1491.033,1558.382,1489.489,1558.606Zm-68.83,38.33-15.113-15.113h15.113Z" fill="#c3a26b" fill-rule="evenodd"/>
    <path id="Path_47" data-name="Path 47" d="M1502.37,1525.375a.758.758,0,0,0-.57.247l-2,2.092-1.1,1.141-12.758,13.366-7.244-7.244a.78.78,0,0,0-1.331.551.826.826,0,0,0,.209.551l7.834,7.815a.715.715,0,0,0,.551.248.922.922,0,0,0,.571-.248l13.043-13.69,1.1-1.141v-.038l2.243-2.319a.89.89,0,0,0,.229-.551A.784.784,0,0,0,1502.37,1525.375Zm-.418,6.236a.569.569,0,0,0-.19-.323.777.777,0,0,0-1.274.818,15.626,15.626,0,0,1-14.527,21.39,15.423,15.423,0,0,1-8.347-2.415,15.8,15.8,0,0,1-2.909-2.357,15.625,15.625,0,1,1,22.493-21.695.794.794,0,0,0,1.084-.038.781.781,0,0,0,0-1.1.6.6,0,0,0-.114-.076,17.2,17.2,0,1,0,3.784,5.8Z" fill="#c3a26b" fill-rule="evenodd"/>
    <path id="Path_48" data-name="Path 48" d="M1477.614,1551.081a.729.729,0,0,1-.095.171c-.247.381-.494.78-.741,1.16l-7.758,12.207a1.982,1.982,0,0,1-3.365,0q-3.281-4.677-6.579-9.355-3.765,10.924-7.549,21.866a1.969,1.969,0,0,1-3.555.475c-2.434-4.182-4.868-8.384-7.3-12.568-2.339,3.518-4.7,7.036-7.036,10.534a1.976,1.976,0,0,1-2.661.7c-1.712-1.046-3.442-2.092-5.153-3.137-.723-.457-1.54-1.1-2.339-1.541-2.966,2.548-5.362,6.617-7.833,9.583-1.617,1.92-4.355-.836-2.757-2.757,2.947-3.536,5.894-7.054,8.841-10.59a1.953,1.953,0,0,1,2.358-.305c2.433,1.483,4.848,2.966,7.282,4.43q3.879-5.789,7.738-11.579a1.983,1.983,0,0,1,3.366,0q3.366,5.79,6.712,11.6,3.708-10.725,7.415-21.467a1.977,1.977,0,0,1,3.556-.456q3.564,5.047,7.092,10.1c2.167-3.4,4.316-6.807,6.483-10.191.134-.228.286-.438.419-.666a1.763,1.763,0,0,1,.551-.57A15.8,15.8,0,0,0,1477.614,1551.081Z" fill="#c3a26b"/>
  </g>
</svg>
