<svg xmlns="http://www.w3.org/2000/svg" width="85.646" height="85.645" viewBox="0 0 85.646 85.645">
  <path id="Icon-algorithms" d="M1031.211,1518.1H961.157a7.756,7.756,0,0,0-7.8,7.8v70.053a7.756,7.756,0,0,0,7.8,7.8h70.054a7.756,7.756,0,0,0,7.8-7.8V1525.9a7.756,7.756,0,0,0-7.8-7.8m-73.952,7.8a3.913,3.913,0,0,1,3.9-3.9h9.608a15.613,15.613,0,0,1-13.506,13.505Zm0,13.505a19.421,19.421,0,0,0,17.4-17.4h19.6v2.854h-.055l-4.008.989a4,4,0,0,0-2.8,2.8,33.072,33.072,0,0,1-3.349,8.015,3.791,3.791,0,0,0,.055,3.953l2.141,3.569-6.808,6.807a.054.054,0,0,1-.055-.055l-3.568-2.086a3.641,3.641,0,0,0-1.977-.6,4.292,4.292,0,0,0-1.976.549,31.608,31.608,0,0,1-7.961,3.294,3.912,3.912,0,0,0-2.745,2.855l-1.043,4.008v.055h-2.855Zm64.234,60.446h-13.56a19.244,19.244,0,0,1-3.953-11.694,18.884,18.884,0,0,1,1.592-7.686l10.376,5.765a7.409,7.409,0,0,0-.274,1.921,7.776,7.776,0,0,0,5.819,7.522Zm-1.976-11.694a3.9,3.9,0,1,1,3.9,3.9,3.913,3.913,0,0,1-3.9-3.9m15.592,7.8a3.913,3.913,0,0,1-3.9,3.9h-5.82v-4.172a7.777,7.777,0,0,0,5.82-7.522,7.37,7.37,0,0,0-.275-1.921l4.173-2.306Zm0-16.47-6.039,3.349a7.762,7.762,0,0,0-11.255,0l-10.376-5.765a19.454,19.454,0,0,1,15.976-8.345,19.13,19.13,0,0,1,11.694,3.953Zm0-11.42a22.948,22.948,0,0,0-11.694-3.239,23.313,23.313,0,0,0-23.333,23.333,22.948,22.948,0,0,0,3.239,11.694H986.247l-1.647-6.259,3.623-2.031a3.82,3.82,0,0,0,2.032-3.4,32.135,32.135,0,0,1,1.1-8.564,3.977,3.977,0,0,0-1.043-3.843l-2.965-2.855,4.776-8.345,4.008,1.153a3.851,3.851,0,0,0,3.788-.989,32.051,32.051,0,0,1,6.918-5.27,3.872,3.872,0,0,0,1.922-3.459l-.055-4.117v-.055l9.333-2.471,2.031,3.624a3.383,3.383,0,0,0,1.427,1.482,3.588,3.588,0,0,0,1.977.549,32.5,32.5,0,0,1,8.564,1.153,4.012,4.012,0,0,0,3.075-.494Zm0-17.842-2.086,2.141a38.041,38.041,0,0,0-9.553-1.263l-2.086-3.733a4.628,4.628,0,0,0-1.647-1.757,2.451,2.451,0,0,0-1.867-.275l-11.035,2.965c-1.537.384-1.922,2.031-2.032,3.514l.11,4.227a36.31,36.31,0,0,0-7.741,5.929l-4.062-1.207c-1.373-.385-3.13-.33-3.9,1.043l-5.71,9.882c-.769,1.372.055,2.855,1.043,3.953l3.02,2.909a38.391,38.391,0,0,0-1.208,9.608l-3.733,2.086c-1.263.714-2.416,1.977-2.032,3.514l1.647,6.094H961.157a3.913,3.913,0,0,1-3.9-3.9v-33.1h3.734c1.592,0,2.415-1.428,2.854-2.855l1.043-4.118a37.985,37.985,0,0,0,8.949-3.733l3.679,2.251a5.829,5.829,0,0,0,2.361.659,2.425,2.425,0,0,0,1.647-.659l8.125-8.125c1.1-1.1.714-2.745,0-4.008l-2.2-3.678a35.7,35.7,0,0,0,3.678-8.949l4.118-1.043c1.427-.439,2.855-1.263,2.855-2.855V1522h33.105a3.913,3.913,0,0,1,3.9,3.9Z" transform="translate(-953.361 -1518.104)" fill="#c3a26b" fill-rule="evenodd"/>
</svg>
