<svg xmlns="http://www.w3.org/2000/svg" width="25.854" height="25.854" viewBox="0 0 25.854 25.854">
  <path id="icon-followus" d="M1034.3,9411.685V9405.8a1.769,1.769,0,0,0-3.538,0v.44l-17.032,5.017a1.115,1.115,0,0,0-.6-.173h-1.163a1.178,1.178,0,0,0-1.18,1.179v5.883a1.165,1.165,0,0,0,1.18,1.164h1.163a1.25,1.25,0,0,0,.6-.158l.708.205,2.248,10.08a.591.591,0,0,0,.567.456h4.7a.581.581,0,0,0,.582-.581c0-.049-.016-.1-.016-.126l-1.856-7.989,10.1,2.972v.44a1.769,1.769,0,0,0,3.538,0v-5.881a2.35,2.35,0,0,0,2.343-2.345v-2.358a2.349,2.349,0,0,0-2.343-2.344m-21.168,6.465h-1.163v-5.883h1.163Zm8.084,10.567h-3.492l-.267-1.164h3.476Zm-.551-2.343h-3.46l-1.478-6.637,3.633,1.069Zm10.1-3.429-16.45-4.844v-5.787l16.45-4.844Zm2.359,1.667a.59.59,0,0,1-1.18,0V9405.8a.59.59,0,0,1,1.18,0Zm2.343-8.226a1.161,1.161,0,0,1-1.164,1.164v-4.7a1.175,1.175,0,0,1,1.164,1.18Z" transform="translate(-1010.789 -9404.042)" fill="#fff" fill-rule="evenodd"/>
</svg>
