<svg xmlns="http://www.w3.org/2000/svg" width="41.604" height="41.604" viewBox="0 0 41.604 41.604">
  <g id="icon_twitter" data-name="icon twitter" transform="translate(-1006.49 -9613.573)">
    <path id="Path_201" data-name="Path 201" d="M1027.292,9654.388h0a20.013,20.013,0,0,1-20.013-20.013h0a20.013,20.013,0,0,1,20.013-20.013h0a20.014,20.014,0,0,1,20.014,20.013h0A20.014,20.014,0,0,1,1027.292,9654.388Z" fill="none" stroke="#c3a26b" stroke-miterlimit="10" stroke-width="1.577"/>
    <path id="Path_202" data-name="Path 202" d="M1016.629,9641.075a12.444,12.444,0,0,0,19.144-11.05,8.9,8.9,0,0,0,2.183-2.266,8.731,8.731,0,0,1-2.513.689,4.382,4.382,0,0,0,1.923-2.421,8.773,8.773,0,0,1-2.778,1.063,4.378,4.378,0,0,0-7.456,3.99,12.415,12.415,0,0,1-9.018-4.572,4.381,4.381,0,0,0,1.354,5.842,4.347,4.347,0,0,1-1.982-.547,4.382,4.382,0,0,0,3.509,4.347,4.377,4.377,0,0,1-1.975.073,4.379,4.379,0,0,0,4.087,3.039A8.8,8.8,0,0,1,1016.629,9641.075Z" fill="#c3a26b"/>
  </g>
</svg>
