<svg xmlns="http://www.w3.org/2000/svg" width="41.604" height="41.604" viewBox="0 0 41.604 41.604">
  <g id="icon-youtube" transform="translate(-1120.819 -9613.573)">
    <path id="Path_199" data-name="Path 199" d="M1141.622,9654.388h0a20.013,20.013,0,0,1-20.014-20.013h0a20.013,20.013,0,0,1,20.014-20.013h0a20.013,20.013,0,0,1,20.013,20.013h0A20.013,20.013,0,0,1,1141.622,9654.388Z" fill="none" stroke="#c3a26b" stroke-miterlimit="10" stroke-width="1.577"/>
    <path id="Path_200" data-name="Path 200" d="M1152.659,9628.794a2.891,2.891,0,0,0-2.037-2.05c-1.8-.485-9-.485-9-.485s-7.2,0-9,.485a2.891,2.891,0,0,0-2.037,2.05,32.557,32.557,0,0,0,0,11.162,2.891,2.891,0,0,0,2.037,2.05c1.8.485,9,.485,9,.485s7.205,0,9-.485a2.891,2.891,0,0,0,2.037-2.05,32.557,32.557,0,0,0,0-11.162Zm-13.394,9.006v-6.851l6.022,3.426Z" fill="#c3a26b"/>
  </g>
</svg>
