<svg xmlns="http://www.w3.org/2000/svg" width="24.669" height="24.669" viewBox="0 0 24.669 24.669">
  <path id="icon-contact" d="M1371.972,9421.8h-.016a1.623,1.623,0,0,0-.49-1.187,1.331,1.331,0,0,0-.3-.234l-4.744-3.69a1.666,1.666,0,0,0-1.186-.493,1.686,1.686,0,0,0-1.012.344l-1.328,1.335v0a1.1,1.1,0,0,1-.822.378,1.128,1.128,0,0,1-.918-.478c-.015.01-.015.021-.031.033a21.316,21.316,0,0,1-4.776-4.77c.016,0,.016-.016.032-.016a1.173,1.173,0,0,1-.49-.934,1.086,1.086,0,0,1,.411-.853l1.312-1.313a1.7,1.7,0,0,0,.348-1.012,1.638,1.638,0,0,0-.506-1.187l-3.684-4.743a1.449,1.449,0,0,0-.238-.3,1.687,1.687,0,0,0-1.186-.489c-2.245,0-5.044,2.641-5.044,5.883a5.8,5.8,0,0,0,.569,2.514l-.016.016a35.567,35.567,0,0,0,15.7,15.7l.016-.017a5.828,5.828,0,0,0,2.514.569c3.242,0,5.883-2.8,5.883-5.047v-.009m-5.883,3.935a4.722,4.722,0,0,1-2.04-.462,1.334,1.334,0,0,0-.189-.068,34.3,34.3,0,0,1-14.9-14.905c-.031-.063-.047-.127-.079-.189a4.816,4.816,0,0,1-.458-2.04c0-2.721,2.372-4.761,3.921-4.761a.55.55,0,0,1,.4.158.438.438,0,0,1,.079.111c.016.031.047.063.063.095l3.7,4.744a.444.444,0,0,0,.079.095.575.575,0,0,1,.174.4.541.541,0,0,1-.079.285l-1.249,1.249c-.016,0-.016,0-.032.016a2.275,2.275,0,0,0-.094,3.178.26.26,0,0,1,.047.063,22.312,22.312,0,0,0,5.044,5.013c.016.01.032.021.032.03a2.294,2.294,0,0,0,1.566.628,2.245,2.245,0,0,0,1.565-.647c.016-.019.048-.038.063-.06l1.25-1.263a.547.547,0,0,1,.284-.084.553.553,0,0,1,.4.164.523.523,0,0,0,.11.094l4.744,3.69c.032.023.064.045.095.066a.489.489,0,0,1,.1.074.551.551,0,0,1,.158.4c0,.038.016.076.016.113-.095,1.544-2.1,3.821-4.76,3.821" transform="translate(-1347.303 -9402.189)" fill="#fff" fill-rule="evenodd"/>
</svg>
