<svg xmlns="http://www.w3.org/2000/svg" width="24.994" height="24.987" viewBox="0 0 24.994 24.987">
  <path id="icon-whoweare" d="M356.649,9422.048a22.781,22.781,0,0,0-7.246-2.892,17.64,17.64,0,0,0,2.976-6.373c.589-2.45.368-7.226-1.987-10.2a7.1,7.1,0,0,0-11.085,0c-2.356,2.976-2.576,7.751-1.987,10.2a17.606,17.606,0,0,0,2.976,6.373,22.782,22.782,0,0,0-7.246,2.892,1.562,1.562,0,0,0,.873,2.861h21.853a1.562,1.562,0,0,0,.873-2.861m-8.466-3.858-.263.325c-1.861,2.146-4.28,2.146-6.141,0l-.263-.325a13.334,13.334,0,0,1-2.787-9.875c.42-3.346,2.345-6.837,6.12-6.837s5.7,3.491,6.121,6.837a13.334,13.334,0,0,1-2.787,9.875m-14.26,5.152a21.584,21.584,0,0,1,6.7-2.661l1.935-.409a3.941,3.941,0,0,0,4.585,0l1.935.409a21.384,21.384,0,0,1,6.7,2.661Z" transform="translate(-332.353 -9399.922)" fill="#fff" fill-rule="evenodd"/>
</svg>
