<svg xmlns="http://www.w3.org/2000/svg" width="41.603" height="41.604" viewBox="0 0 41.603 41.604">
  <g id="Icon-telegram" transform="translate(-1177.984 -9613.573)">
    <path id="Path_207" data-name="Path 207" d="M1198.786,9654.388h0a20.013,20.013,0,0,1-20.013-20.013h0a20.013,20.013,0,0,1,20.013-20.013h0a20.013,20.013,0,0,1,20.013,20.013h0A20.013,20.013,0,0,1,1198.786,9654.388Z" fill="none" stroke="#c3a26b" stroke-miterlimit="10" stroke-width="1.577"/>
    <path id="Path_208" data-name="Path 208" d="M1206.679,9624.541a.642.642,0,0,0-.342-.1.624.624,0,0,0-.343.1l-18.724,12.418a.618.618,0,0,0,.117,1.095l4.884,1.949,2.291,3.989a.627.627,0,0,0,.535.316h.009a.638.638,0,0,0,.535-.3l1.3-2.148,6.046,2.408a.756.756,0,0,0,.234.041.6.6,0,0,0,.31-.083.637.637,0,0,0,.309-.435l3.119-18.632a.609.609,0,0,0-.276-.618m-13.329,14.843v-.008l7.778-7.606-6.039,10.642Z" fill="#c3a26b" fill-rule="evenodd"/>
  </g>
</svg>
