<svg xmlns="http://www.w3.org/2000/svg" width="77.834" height="95.456" viewBox="0 0 77.834 95.456">
  <path id="Icon-registeration" d="M1432.627,4349.354h25.945a2.173,2.173,0,1,0,0-4.345h-25.945a2.173,2.173,0,0,0,0,4.345m0,13.033h47.606a2.172,2.172,0,0,0,0-4.344h-47.606a2.172,2.172,0,0,0,0,4.344m0,12.973h38.917a2.143,2.143,0,1,0,0-4.284h-38.917a2.142,2.142,0,1,0,0,4.284m58.376-60.7h-17.256v-4.344a4.361,4.361,0,0,0-4.345-4.345h-8.627a4.344,4.344,0,0,0-8.689,0h-8.628a4.361,4.361,0,0,0-4.345,4.345v4.344h-17.255a4.361,4.361,0,0,0-4.345,4.345v73.734a4.361,4.361,0,0,0,4.345,4.344H1491a4.361,4.361,0,0,0,4.344-4.344V4319a4.361,4.361,0,0,0-4.344-4.345m-47.545-4.344H1469.4V4319h-25.944ZM1491,4392.738h-69.145v-60.762H1491Zm0-65.106h-69.145V4319h17.255a4.361,4.361,0,0,0,4.345,4.344H1469.4a4.361,4.361,0,0,0,4.345-4.344H1491Z" transform="translate(-1417.513 -4301.626)" fill="#c3a26b" fill-rule="evenodd"/>
</svg>
