<svg xmlns="http://www.w3.org/2000/svg" width="70.322" height="70.322" viewBox="0 0 70.322 70.322">
  <g id="icon-location" transform="translate(-1206.463 -659.992)">
    <ellipse id="Ellipse_65" data-name="Ellipse 65" cx="34.301" cy="34.301" rx="34.301" ry="34.301" transform="translate(1207.323 660.852)" fill="none" stroke="#c3a26b" stroke-miterlimit="10" stroke-width="1.72"/>
    <path id="Path_1525" data-name="Path 1525" d="M1269.453,724.476a14.584,14.584,0,0,0-14.623,14.546c0,11.827,14.623,25.475,14.623,25.475s14.622-13.648,14.622-25.475a14.584,14.584,0,0,0-14.622-14.546m0,37.3s-12.8-11.827-12.8-22.756a12.8,12.8,0,0,1,25.6,0c0,10.929-12.8,22.756-12.8,22.756m0-30.016a7.273,7.273,0,1,0,7.311,7.26,7.3,7.3,0,0,0-7.311-7.26m0,12.725a5.452,5.452,0,1,1,5.49-5.464,5.475,5.475,0,0,1-5.49,5.464" transform="translate(-27.829 -46.932)" fill="#c3a26b" fill-rule="evenodd"/>
  </g>
</svg>
