<svg xmlns="http://www.w3.org/2000/svg" width="85.401" height="88.365" viewBox="0 0 85.401 88.365">
  <g id="Icon-bv" transform="translate(-502.28 -4300.827)">
    <g id="Group_81" data-name="Group 81">
      <g id="Group_79" data-name="Group 79">
        <path id="Path_139" data-name="Path 139" d="M558.409,4386.016a39.721,39.721,0,0,1-12.65,3.176,40.589,40.589,0,0,1-10.411-6.494v-.007c-.659-.562-1.3-1.131-1.917-1.738a40.7,40.7,0,0,1-12.351-29.218q0-1.146.067-2.269a79.36,79.36,0,0,0,8.965,10.591q1.8,1.785,3.738,3.49c9.556,8.4,20.162,14.44,30.543,16.62a29.576,29.576,0,0,0,3,.449c9.744.974,22.934-2.007,18.5-7.265C592.525,4377.9,580.145,4387.552,558.409,4386.016Z" fill="#c3a26b"/>
        <path id="Path_140" data-name="Path 140" d="M572.5,4322.6a.023.023,0,0,0-.008-.015,40.369,40.369,0,0,0-5.879-5.43,13.615,13.615,0,0,0,8.306-3.408,49.941,49.941,0,0,0-16.343-1.326c-.014-.007-.022-.015-.037-.022-.832-.36-1.67-.7-2.524-1A40.784,40.784,0,0,0,522,4343.085a74.9,74.9,0,0,0,12.463,14.021,70.156,70.156,0,0,0,28.5,15.5,53.273,53.273,0,0,0,7.182,1.319c.555.06,1.1.112,1.648.142-2.457-13.2-13.923-17.743-20.731-23.915-4.532-4.1-2.233-15.833-2.233-15.833.5,20.327,14.545,10.538,21.8,28.476a1.847,1.847,0,0,0,2.3.8c2.577-.794,5.708,1.783,7.625-1.835a39.874,39.874,0,0,0,1.393-5.527C574.182,4336.172,579.343,4331.3,572.5,4322.6Zm-4.164,10.6c-1.955-1.835-.038-2.644-2.419-6.007,2.314,1.506,2.629,3.543,3.677,4.614C568.595,4331.753,568.9,4332.771,568.333,4333.2Z" fill="#c3a26b"/>
      </g>
      <g id="Group_80" data-name="Group 80">
        <path id="Path_141" data-name="Path 141" d="M529.835,4387.312a39.927,39.927,0,0,1-13.5-7.625h-.008c-.651-.554-1.273-1.123-1.888-1.722a40.11,40.11,0,0,1-12.163-28.784,40,40,0,0,1,4.636-18.747c-1.61-10.935,1.011-21.66,6.277-29.315.24-.1.487-.194.726-.292a25.937,25.937,0,0,0-1.378,2.824c-2.876,6.209-3.512,13.571-2.127,21.308a55.48,55.48,0,0,0,4.029,12.815c.689,1.536,1.446,3.071,2.277,4.592a47.326,47.326,0,0,0-1.572,12.29,43.529,43.529,0,0,0,8.68,26.14,45.274,45.274,0,0,0,4.547,5.175C528.854,4386.428,529.333,4386.878,529.835,4387.312Z" fill="#c3a26b"/>
        <path id="Path_142" data-name="Path 142" d="M518.436,4337.258a54.659,54.659,0,0,1-5.64-15.16,40.212,40.212,0,0,1,38.722-12.028C536.134,4314.2,523.993,4323.671,518.436,4337.258Z" fill="#c3a26b"/>
      </g>
    </g>
  </g>
</svg>
