<svg xmlns="http://www.w3.org/2000/svg" width="263.845" height="69.608" viewBox="0 0 263.845 69.608">
  <g id="logo_header" data-name="logo header" transform="translate(-250 -68.166)">
    <g id="Group_6" data-name="Group 6" transform="translate(-36.653 24.872)">
      <g id="Group_4" data-name="Group 4">
        <path id="Path_14" data-name="Path 14" d="M399.764,84.921a5.539,5.539,0,0,1,2.965,5.114c0,4.09-2.659,7.26-7.567,7.26H383.675V73.469h10.533c4.431,0,7.533,2.9,7.533,7.328A5.618,5.618,0,0,1,399.764,84.921Zm-9.851-6.033v3.988h3.852A1.816,1.816,0,0,0,395.605,81a1.88,1.88,0,0,0-1.84-2.114Zm0,9.033v3.954h4.806a1.832,1.832,0,0,0,1.841-1.84,2.19,2.19,0,0,0-.853-1.875,2.365,2.365,0,0,0-1.022-.239Z" fill="#c3a26b"/>
        <path id="Path_15" data-name="Path 15" d="M417.825,92.386v5.045H405.52V92.386h3.034V78.616h-2.761V73.571h11.759v5.045h-2.761v13.77Z" fill="#c3a26b"/>
        <path id="Path_16" data-name="Path 16" d="M432.651,73.265c4.737,0,9.679,2.419,10.941,8.214h-6.068c-1.056-1.909-2.556-2.624-4.873-2.624-3.853,0-5.966,3.033-5.966,6.646,0,3.988,2.318,6.544,5.966,6.544,2.454,0,4.021-.613,5.146-2.9h-5.079V83.9h11.248a17.1,17.1,0,0,1-.647,6.919c-1.739,5.011-6.238,6.919-10.668,6.919-6.068,0-12.271-4.055-12.271-12.2C420.38,77.355,426.583,73.265,432.651,73.265Z" fill="#c3a26b"/>
      </g>
      <g id="Group_5" data-name="Group 5">
        <path id="Path_17" data-name="Path 17" d="M456.335,86.9l1.942-6.238,2.931-7.09h6.647v.921L457.561,97.67h-2.59l-10.4-23.178v-.921h6.647l3,7.09,2.011,6.238Z" fill="#fff"/>
        <path id="Path_18" data-name="Path 18" d="M485.235,78.991h-8.659V82.4h7.977v5.454h-7.977v3.885h8.965v5.693h-15.2V73.571h14.9Z" fill="#fff"/>
        <path id="Path_19" data-name="Path 19" d="M494.571,90.1c0,1.636,1.874,2.454,3.783,2.454,1.773,0,3.647-.818,3.647-2.249,0-2.284-2.658-2.386-4.4-2.488-4.363-.273-8.726-2.011-8.726-6.988,0-5.181,4.4-7.805,9.271-7.805,4.6,0,9.271,2.624,9.169,7.805H501.49c-.034-1.636-1.568-2.318-3.238-2.318-1.4,0-3.238.375-3.238,2.182,0,1.6,1.364,1.977,3.647,2.216,5.079.443,9.51,1.636,9.51,7.43,0,5.011-4.875,7.635-9.748,7.635-5.045,0-9.885-2.522-9.783-7.874Z" fill="#fff"/>
        <path id="Path_20" data-name="Path 20" d="M509.8,79.025V73.571h17.724v5.454H521.7V97.431h-6.033V79.025Z" fill="#fff"/>
        <path id="Path_21" data-name="Path 21" d="M533.728,94.465l-1.363,2.966h-6.511v-.852L536.8,73.332h2.863L550.5,96.579v.852h-6.442l-1.4-2.966Zm2.012-5.215h4.942l-2.488-5.76Z" fill="#fff"/>
      </g>
    </g>
    <g id="Group_9" data-name="Group 9" transform="translate(-36.653 24.872)">
      <g id="Group_7" data-name="Group 7">
        <path id="Path_22" data-name="Path 22" d="M330.868,110.4a31.3,31.3,0,0,1-9.965,2.5,31.964,31.964,0,0,1-8.2-5.116v-.005c-.519-.443-1.02-.891-1.51-1.369A32.07,32.07,0,0,1,301.462,83.4q0-.9.053-1.788a62.466,62.466,0,0,0,7.062,8.343q1.416,1.407,2.944,2.749c7.529,6.614,15.883,11.375,24.061,13.092a22.735,22.735,0,0,0,2.36.354c7.675.767,18.066-1.581,14.573-5.723C357.742,104,347.99,111.61,330.868,110.4Z" fill="#c3a26b"/>
        <path id="Path_23" data-name="Path 23" d="M341.965,60.445a.021.021,0,0,0-.006-.012,31.83,31.83,0,0,0-4.631-4.277,10.733,10.733,0,0,0,6.543-2.685A39.321,39.321,0,0,0,331,52.427c-.011-.006-.017-.012-.029-.018-.655-.283-1.316-.549-1.989-.79a32.128,32.128,0,0,0-26.792,24.962,58.982,58.982,0,0,0,9.818,11.045,55.254,55.254,0,0,0,22.45,12.213,42.005,42.005,0,0,0,5.658,1.039c.436.047.867.088,1.3.112-1.935-10.4-10.968-13.977-16.331-18.839-3.57-3.233-1.759-12.473-1.759-12.473.4,16.013,11.458,8.3,17.175,22.432a1.454,1.454,0,0,0,1.811.631c2.03-.625,4.5,1.405,6.007-1.445a31.485,31.485,0,0,0,1.1-4.354C343.293,71.136,347.358,67.3,341.965,60.445Zm-3.28,8.348c-1.54-1.445-.029-2.082-1.9-4.731,1.823,1.185,2.07,2.79,2.9,3.634C338.891,67.655,339.133,68.457,338.685,68.793Z" fill="#c3a26b"/>
      </g>
      <g id="Group_8" data-name="Group 8">
        <path id="Path_24" data-name="Path 24" d="M308.359,111.421a31.469,31.469,0,0,1-10.632-6.006h-.005c-.514-.437-1-.885-1.488-1.357A31.644,31.644,0,0,1,290.3,66.616a32.879,32.879,0,0,1,4.944-23.092c.189-.077.384-.154.572-.23a20.4,20.4,0,0,0-1.085,2.224c-2.266,4.891-2.767,10.691-1.676,16.785a43.709,43.709,0,0,0,3.174,10.1c.543,1.21,1.139,2.419,1.794,3.617a37.3,37.3,0,0,0-1.239,9.682,34.291,34.291,0,0,0,6.838,20.591,35.765,35.765,0,0,0,3.582,4.077C307.586,110.725,307.964,111.079,308.359,111.421Z" fill="#fff"/>
        <path id="Path_25" data-name="Path 25" d="M299.379,71.991a43.067,43.067,0,0,1-4.443-11.941,31.678,31.678,0,0,1,30.5-9.476C313.321,53.825,303.757,61.289,299.379,71.991Z" fill="#fff"/>
      </g>
    </g>
  </g>
</svg>
