<svg xmlns="http://www.w3.org/2000/svg" xmlns:xlink="http://www.w3.org/1999/xlink" width="39.449" height="23.013" viewBox="0 0 39.449 23.013">
  <defs>
    <clipPath id="clip-path">
      <rect id="Rectangle_83" data-name="Rectangle 83" width="39.449" height="23.012" transform="translate(1212.827 9160.904)" fill="none"/>
    </clipPath>
  </defs>
  <g id="MALAYSIA" transform="translate(-1212.827 -9160.904)">
    <g id="Group_109" data-name="Group 109">
      <g id="Group_108" data-name="Group 108">
        <g id="Group_107" data-name="Group 107" clip-path="url(#clip-path)">
          <rect id="Rectangle_67" data-name="Rectangle 67" width="39.449" height="1.644" transform="translate(1212.827 9160.904)" fill="#d80031"/>
          <rect id="Rectangle_68" data-name="Rectangle 68" width="39.449" height="1.644" transform="translate(1212.827 9162.548)" fill="#fff"/>
          <rect id="Rectangle_69" data-name="Rectangle 69" width="39.449" height="1.644" transform="translate(1212.827 9164.191)" fill="#d80031"/>
          <rect id="Rectangle_70" data-name="Rectangle 70" width="39.449" height="1.644" transform="translate(1212.827 9165.835)" fill="#fff"/>
          <rect id="Rectangle_71" data-name="Rectangle 71" width="39.449" height="1.644" transform="translate(1212.827 9167.479)" fill="#d80031"/>
          <rect id="Rectangle_72" data-name="Rectangle 72" width="39.449" height="1.644" transform="translate(1212.827 9169.123)" fill="#fff"/>
          <rect id="Rectangle_73" data-name="Rectangle 73" width="39.449" height="1.644" transform="translate(1212.827 9170.767)" fill="#d80031"/>
          <rect id="Rectangle_74" data-name="Rectangle 74" width="39.449" height="1.644" transform="translate(1212.827 9172.41)" fill="#fff"/>
          <rect id="Rectangle_75" data-name="Rectangle 75" width="39.449" height="1.644" transform="translate(1212.827 9174.054)" fill="#d80031"/>
          <rect id="Rectangle_76" data-name="Rectangle 76" width="39.449" height="1.644" transform="translate(1212.827 9175.697)" fill="#fff"/>
          <rect id="Rectangle_77" data-name="Rectangle 77" width="39.449" height="1.644" transform="translate(1212.827 9177.342)" fill="#d80031"/>
          <rect id="Rectangle_78" data-name="Rectangle 78" width="39.449" height="1.644" transform="translate(1212.827 9178.985)" fill="#fff"/>
          <rect id="Rectangle_79" data-name="Rectangle 79" width="39.449" height="1.644" transform="translate(1212.827 9180.629)" fill="#d80031"/>
          <rect id="Rectangle_80" data-name="Rectangle 80" width="39.449" height="1.644" transform="translate(1212.827 9182.272)" fill="#fff"/>
          <rect id="Rectangle_81" data-name="Rectangle 81" width="23.011" height="13.15" transform="translate(1212.827 9160.904)" fill="#2530a9"/>
          <g id="Group_106" data-name="Group 106">
            <g id="Group_105" data-name="Group 105" clip-path="url(#clip-path)">
              <path id="Path_153" data-name="Path 153" d="M1218.99,9167.479a4.315,4.315,0,0,1,6.572-3.678,4.931,4.931,0,1,0,0,7.356,4.315,4.315,0,0,1-6.572-3.679" fill="#f5d028"/>
              <path id="Path_154" data-name="Path 154" d="M1228.853,9167.479l2.361-.913-2.523.2,1.731-1.851-2.188,1.276.755-2.415-1.417,2.1-.364-2.508-.263,1.8-.074.519-.029.193-1.418-2.1.759,2.415-2.188-1.276,1.731,1.851-2.524-.2,2.363.913-2.363.914,2.524-.2-1.731,1.855,2.188-1.281-.759,2.415,1.418-2.1.029.2.074.514.263,1.8.364-2.512,1.417,2.1-.755-2.415,2.188,1.281-1.731-1.855,2.523.2Z" fill="#f5d028"/>
            </g>
          </g>
        </g>
      </g>
    </g>
  </g>
</svg>
