<svg xmlns="http://www.w3.org/2000/svg" xmlns:xlink="http://www.w3.org/1999/xlink" width="39.45" height="23.017" viewBox="0 0 39.45 23.017">
  <defs>
    <clipPath id="clip-path">
      <rect id="Rectangle_90" data-name="Rectangle 90" width="39.45" height="23.017" transform="translate(1212.826 9220.483)" fill="none"/>
    </clipPath>
  </defs>
  <g id="SAUDI_ARABIA" data-name="SAUDI ARABIA" transform="translate(-1212.826 -9220.483)">
    <g id="Group_117" data-name="Group 117">
      <g id="Group_116" data-name="Group 116">
        <g id="Group_115" data-name="Group 115" clip-path="url(#clip-path)">
          <rect id="Rectangle_88" data-name="Rectangle 88" width="39.45" height="23.017" transform="translate(1212.826 9220.483)" fill="#3d9635"/>
          <g id="Group_114" data-name="Group 114">
            <g id="Group_113" data-name="Group 113" clip-path="url(#clip-path)">
              <path id="Path_155" data-name="Path 155" d="M1223.991,9227.008c-.039.537-.088,1.488.369,1.584.552.051.248-.936.446-1.115.038-.088.108-.088.114.022v.841a.4.4,0,0,0,.315.4c.144-.009.24,0,.3.137.024.483.046.965.068,1.447,0,0,.337.1.353-.813a8.629,8.629,0,0,1-.036-1.088c0-.1.132-.109.225-.055.145.1.209.225.433.174.342-.1.545-.257.551-.522a2.276,2.276,0,0,0-.154-.749c.015-.046-.067-.16-.05-.206.061.1.152.087.173,0a.744.744,0,0,0-.293-.455c-.121-.105-.3-.082-.365.143a1.234,1.234,0,0,0,.282.8.8.8,0,0,1,.068.4.219.219,0,0,1-.278-.055s-.275-.206-.275-.248a.98.98,0,0,0-.023-.647.826.826,0,0,0-.18-.349c-.068-.078-.16-.078-.2,0a1.207,1.207,0,0,0,.022.854c.06.185.158.3.113.3-.038.105-.114.077-.171-.041a2.989,2.989,0,0,1-.094-.785c-.025-.207-.053-.648-.188-.763-.083-.11-.207-.055-.25.051a3.9,3.9,0,0,0,.014.6,6.552,6.552,0,0,1,.168.964c.012.455-.261.2-.25-.032a2.068,2.068,0,0,0-.009-.867c-.045-.119-.1-.147-.208-.124-.087-.01-.309.234-.371.639a3.246,3.246,0,0,0-.075.394c-.033.207-.169.354-.264-.031-.085-.28-.135-.97-.274-.809" fill="#fff"/>
              <path id="Path_156" data-name="Path 156" d="M1225.493,9229.212c-.488.243-.961.464-1.441.693a1.475,1.475,0,0,1,1.14-.923c.3.01.22.114.3.229" fill="#fff"/>
              <path id="Path_157" data-name="Path 157" d="M1227.328,9226.173a.5.5,0,0,0-.092.027.269.269,0,0,0-.193.335c.139.845.228,1.488.367,2.328a.182.182,0,0,1-.167.221c-.182-.124-.227-.377-.537-.363a.609.609,0,0,0-.514.482,1.2,1.2,0,0,0,0,.551.449.449,0,0,0,.514.128c.135-.055.249-.191.3-.16h0c.03.056,0,.5-.641.831-.394.174-.705.221-.874-.1-.1-.2.008-.964-.247-.79-.758,1.956,1.775,2.23,2.058.083.019-.061.076-.12.115-.106.02.01.032.032.037.078-.059,1.942-1.958,2.071-2.281,1.465a1.842,1.842,0,0,1-.113-.656.357.357,0,0,0-.078-.217c-.077-.055-.181.1-.2.359a2.343,2.343,0,0,0-.023.468c.1,1.543,2.549.881,2.948-.39a4.372,4.372,0,0,0,.062-1.213h.008l.006,0c.248.262.585.031.661-.056a.114.114,0,0,1,.17-.019.391.391,0,0,0,.59-.165,5.825,5.825,0,0,0,.083-.73.7.7,0,0,0-.264.11.065.065,0,0,0-.02.037c-.009.064-.02.138-.031.207,0,0-.005.013-.006.018a.042.042,0,0,1-.024.019.081.081,0,0,1-.124-.056c-.057-.261-.3-.3-.445.111-.1.082-.278.1-.3-.019.025-.28-.089-.317-.313-.188-.071-.551-.144-1.075-.217-1.625.1,0,.178.068.266-.037a3.108,3.108,0,0,0-.4-.932h0l-.017-.02a.008.008,0,0,1-.007,0h-.007c-.005,0-.012,0-.013-.009s-.022,0-.032,0m-.681,3.017a.128.128,0,0,1,.135.083.149.149,0,0,1-.028.146h0c-.02.032-.084.018-.132.018a.122.122,0,0,1-.119-.06c-.018-.05.031-.1.053-.142h0l.008-.015a.191.191,0,0,1,.082-.031" fill="#fff"/>
              <path id="Path_158" data-name="Path 158" d="M1229.034,9226.127a.476.476,0,0,0-.171.046.334.334,0,0,0-.058.437c.1.041.193.142.128.192-.271.289-.98.776-1.016.867h0v0h0l0,0h.006a1.842,1.842,0,0,0,.529,0v0h0a7.361,7.361,0,0,0,.875-.882c-.036-.032-.072-.055-.109-.087a.058.058,0,0,1,0-.1.292.292,0,0,0,.03-.441.424.424,0,0,0-.217-.041m-.033.252c.044,0,.1.041.122.1s.014.119-.029.134a.146.146,0,0,1-.135-.093c-.028-.063-.012-.124.034-.133,0,0,0,0,.008,0" fill="#fff"/>
              <path id="Path_159" data-name="Path 159" d="M1224.1,9230.6a1.432,1.432,0,0,0-.145,1.268.3.3,0,0,0,.307.1.563.563,0,0,0,.2-.542c-.057-.092-.1-.1-.159-.026-.118.237-.168.072-.179-.065a3.181,3.181,0,0,1,.032-.679c.03-.188,0-.133-.059-.056" fill="#fff"/>
              <path id="Path_160" data-name="Path 160" d="M1235.657,9229.91c-.259-.565-.622-1.12-.737-1.332s-.985-1.473-1.113-1.62c-.284-.336.459.142-.095-.528-.208-.179-.221-.188-.4-.336-.085-.063-.3-.174-.339.01a1.059,1.059,0,0,0,.019.4,1.374,1.374,0,0,0,.223.34,25.074,25.074,0,0,1,2.418,3.884c.119-.055.094-.721.023-.816" fill="#fff"/>
              <path id="Path_161" data-name="Path 161" d="M1234.511,9231.793c-.052.055.126.307.359.3a1.354,1.354,0,0,0,1.043-.836,1.492,1.492,0,0,0,.239-.643,14.148,14.148,0,0,0-.261-3.251.538.538,0,0,1,.009-.226c.026-.031.111,0,.155-.072.068-.069-.174-.629-.312-.846-.049-.1-.067-.161-.148.01a1.231,1.231,0,0,0-.135.614c.184,1.277.241,2.4.363,3.679a.512.512,0,0,1-.09.377,3.593,3.593,0,0,1-1.222.891" fill="#fff"/>
              <path id="Path_162" data-name="Path 162" d="M1239.746,9231.783c-.28.161-.28.349-.053.354a1.391,1.391,0,0,0,1.163-.556,1.848,1.848,0,0,0,.187-.716,16.809,16.809,0,0,0-.21-3.513,1.5,1.5,0,0,1-.039-.33c.026-.061.151.009.194-.064.069-.065-.324-.574-.464-.79-.047-.1-.064-.161-.146.014a.978.978,0,0,0-.08.61,33.867,33.867,0,0,1,.389,3.967,1.141,1.141,0,0,1-.078.326,2.382,2.382,0,0,1-.379.446c-.128.092-.4.183-.484.252" fill="#fff"/>
              <path id="Path_163" data-name="Path 163" d="M1239.952,9230.539c0-.326.01-.606,0-.849s-.123-1.153-.158-1.347-.076-.491-.129-.725a1.874,1.874,0,0,1-.048-.413c.02-.065.11,0,.15-.074a2.557,2.557,0,0,0-.366-1.019c-.051-.1-.147-.064-.262.092-.111.1-.07.33-.029.551a20.286,20.286,0,0,1,.442,4.357c-.016.114.409-.354.4-.574" fill="#fff"/>
              <path id="Path_164" data-name="Path 164" d="M1237.9,9228.739c-.176,0-.543-.34-.65-.537a.38.38,0,0,1,.021-.289c.065-.042.165-.092.239-.042,0,0,.078.105.063.12.095.046.136.018.147-.023.005-.063-.03-.105-.03-.179a.2.2,0,0,1,.362-.106.743.743,0,0,1,.1.358c0,.06-.1-.009-.148,0s-.067.073-.071.128c-.012.152-.028.386-.03.565" fill="#fff"/>
              <path id="Path_165" data-name="Path 165" d="M1234.67,9230.9a15.178,15.178,0,0,0-.021-1.607c-.016-.616-.119-1.8-.165-2-.055-.377.153.041.123-.179a2.4,2.4,0,0,0-.518-.97c-.078-.109-.075-.133-.2.028a1.146,1.146,0,0,0,.016.753,13.99,13.99,0,0,1,.326,2.186,19.505,19.505,0,0,1,.019,2.322c.132,0,.343-.215.417-.531" fill="#fff"/>
              <path id="Path_166" data-name="Path 166" d="M1240.549,9230.19c-.306-.52-.773-1.125-.9-1.331s-1.178-1.75-1.31-1.889c-.386-.4.177-.063-.072-.381a3.068,3.068,0,0,0-.456-.439c-.09-.057-.146-.17-.176.018a3.824,3.824,0,0,0-.013.5.64.64,0,0,0,.153.313,28.945,28.945,0,0,1,2.767,4.018c.117-.055.077-.721,0-.812" fill="#fff"/>
              <path id="Path_167" data-name="Path 167" d="M1236.814,9236.3h0a.259.259,0,0,0-.087.479c-2.883,0-7.3-.046-8.25-.046-.533,0-2.21-.064-2.241-.064a1.7,1.7,0,0,0,1.561.642c1.281,0,7.21-.013,8.895-.013a.588.588,0,0,0,.107.615l.007,0s.005,0,.01,0h.005c.112.028.162-.055.2-.11a11.793,11.793,0,0,0,1.293,0h0c.063.093.128.18.247.166.21-.046.375-.068.382-.5,0,0-.022-.726-.5-.68-.114.014-.429.046-.429.046-.368-.041-.639-.046-1.051-.063.039-.046.1-.244.023-.312a.142.142,0,0,0-.1-.027h-.008s-.007-.006-.01-.01v0a.851.851,0,0,1-.046-.124h-.009m.2,1.038h0c.417.019.812,0,1.235.023a.153.153,0,0,1-.012.211s0,0-.006,0h-.011c-.137,0-.215,0-.351-.01,0-.01,0-.014,0-.022-.033-.1-.266-.088-.322-.01h0l0,0,0,.009v.009a.028.028,0,0,0,0,.015,3,3,0,0,1-.537-.019c-.052-.064-.046-.184.017-.216" fill="#fff"/>
              <path id="Path_168" data-name="Path 168" d="M1229.523,9226.567c-.28.8.162,1.681.467,1.6.222.087.361-.335.452-.794.063-.129.109-.143.141-.078-.009.615.044.753.2.936a.5.5,0,0,0,.665.011c.023-.02.274-.271.274-.271a.164.164,0,0,1,.229-.009c.081.073.071.206.25.293a.532.532,0,0,0,.546-.114c.1-.17.123-.229.169-.294.074-.1.194-.055.194-.022-.01.055-.079.1-.034.2.087.063.106.022.158.009.178-.087.312-.474.312-.474.006-.146-.073-.133-.128-.1s-.071.055-.14.1c-.086.01-.256.068-.338-.06a5.342,5.342,0,0,1-.154-.533c0-.009-.112-.243-.006-.261.051.009.164.041.183-.055.056-.093-.119-.359-.239-.487a.261.261,0,0,0-.388-.015c-.1.088-.083.193-.1.285a.445.445,0,0,0,.093.386,1.172,1.172,0,0,1,.216.785.326.326,0,0,1-.285.146c-.073-.019-.2-.05-.263-.528-.047-.367.014-.881-.142-1.115-.056-.146-.095-.289-.232-.036a.565.565,0,0,0-.08.546,1.612,1.612,0,0,1,.087.85,1.509,1.509,0,0,1-.163.234.273.273,0,0,1-.345.046.371.371,0,0,1-.207-.289,4.1,4.1,0,0,0-.035-.942.167.167,0,0,0-.282-.059,2.116,2.116,0,0,0-.518,1.06c-.08.257-.166.185-.225.078-.144-.133-.155-1.2-.33-1.023" fill="#fff"/>
              <path id="Path_169" data-name="Path 169" d="M1230.47,9228.225s0,0-.008,0l0,.006c-.019.009-.043.041-.091.077-.084.1-.095.161-.091.346,0,.021.154.439.284.739a2.306,2.306,0,0,1,.108,1,2.439,2.439,0,0,1-1.005,1.048.517.517,0,0,1-.419,0v-.006a.249.249,0,0,1-.113-.237h0a2.394,2.394,0,0,0,1.01-1.043,1.087,1.087,0,0,0,.028-.753.755.755,0,0,0-.173-.345l0,0c.056-.026.2.083.226.015a1.084,1.084,0,0,0-.289-.532.245.245,0,0,0-.357-.023c-.121.068-.146.313-.09.528.065.156.243.183.37.5v0c0,.02.041.244-.022.335a3.817,3.817,0,0,1-.757.707l0,0v0h-.008l0,0a.665.665,0,0,0,0-.1c0-.092.037-.313.035-.354h0v0h0c-.216.144-.289.574-.329.7a9.677,9.677,0,0,0-1.536,1.051c-.188.29,1.294-.339,1.465-.413,0,0,0,0,.007,0,.032.032.032.156.132.271a.783.783,0,0,0,.8.261,2.553,2.553,0,0,0,1.156-.964c.044-.063.115-.115.178-.063a1.81,1.81,0,0,0,1.638.857c.185-.225.1-.339.022-.381-.024-.018-.4-.165-.457-.312-.035-.133.052-.252.232-.344a7.9,7.9,0,0,0,1.512-.29,1.3,1.3,0,0,1,.165-.518.23.23,0,0,1,.086-.092l0,0h0v0l0-.01-.085-.05-1.643-.009a.329.329,0,0,1-.046-.023h0v0h0l0,0h0v0h0v0h0v0h0l0,0a.1.1,0,0,1,.051-.032c.4-.05,1.091-.165,1.135-.84a.581.581,0,0,0-.577-.639.588.588,0,0,0-.5.665c-.014.088.032.268-.06.285-.6.061-1.263.437-1.287.707h-.009l0,0h-.008l-.007,0a.149.149,0,0,1-.08-.165,3.233,3.233,0,0,0-.416-1.405c-.084-.087-.122-.12-.147-.124h-.01m2.4.6a.2.2,0,0,1,.129.033.162.162,0,0,1,.1.137v.01h0l0,0v0l-.01.01c-.032.031-.1.026-.172-.015s-.1-.1-.1-.133v0c0-.009,0-.013.007-.013l0-.011h0l.008-.009a.057.057,0,0,1,.039-.014m-1.528,1.387h.02a4.816,4.816,0,0,0,.687.078c.191.014.285.161.107.225s-.345.106-.345.363c.021.124.018.193,0,.22,0,0,0,.01-.007.01v0h0v0h-.005l-.008,0a.007.007,0,0,1-.006,0c-.044,0-.1-.042-.152-.06a.95.95,0,0,1-.456-.676.172.172,0,0,1,.171-.179" fill="#fff"/>
              <path id="Path_170" data-name="Path 170" d="M1226.062,9226.577c.191.087.545.05.53-.253,0-.027-.005-.119-.008-.143-.036-.092-.144-.073-.167.023-.008.027.011.078-.015.1s-.077,0-.076-.078a.119.119,0,0,0-.031-.072.046.046,0,0,0-.042-.015c-.026,0-.026.009-.037.032a.194.194,0,0,0-.015.069c-.005.031-.017.041-.039.046s-.017,0-.039-.009-.028-.02-.028-.042a.334.334,0,0,0-.009-.073.08.08,0,0,0-.047-.028c-.1,0-.111.12-.1.166a.279.279,0,0,0,.127.28" fill="#fff"/>
              <path id="Path_171" data-name="Path 171" d="M1231.612,9228.927c.189.088.639.037.531-.257a1.253,1.253,0,0,0-.011-.142c-.038-.093-.142-.069-.168.022-.005.032.015.083-.012.1s-.077,0-.076-.083a.113.113,0,0,0-.031-.069.056.056,0,0,0-.043-.013c-.025,0-.025.009-.04.031a.293.293,0,0,0-.013.069c0,.032-.015.041-.038.046s-.016,0-.038-.01-.028-.018-.028-.041a.178.178,0,0,0-.012-.073.081.081,0,0,0-.046-.027c-.1,0-.108.118-.1.165-.005,0-.01.216.13.279" fill="#fff"/>
              <path id="Path_172" data-name="Path 172" d="M1234.849,9227.954c.188.087.544.046.529-.257,0-.023-.006-.115-.008-.143-.04-.088-.147-.068-.168.027-.009.028.011.078-.017.092s-.076.009-.073-.078a.17.17,0,0,0-.031-.073.091.091,0,0,0-.041,0c-.026,0-.026,0-.041.027a.243.243,0,0,0-.015.074.038.038,0,0,1-.038.041c-.022,0-.019,0-.036-.009s-.028-.019-.028-.041a.357.357,0,0,0-.012-.078.122.122,0,0,0-.046-.02c-.1,0-.112.12-.1.161-.007.009-.011.22.13.28" fill="#fff"/>
              <path id="Path_173" data-name="Path 173" d="M1236.524,9230.392a1.153,1.153,0,0,0-.111,1.12.888.888,0,0,0,.408.464.282.282,0,0,0,.427-.046c.193-.2.2-.711.287-.812a.17.17,0,0,1,.3-.073.81.81,0,0,0,.276.239.467.467,0,0,0,.61.041.685.685,0,0,0,.325-.4,14.406,14.406,0,0,0,.024-2.322c-.009-.056-.187-.955-.187-.965s-.025-.459-.044-.564c0-.046-.015-.061.031-.055.048.046.053.05.084.06.048.009.092-.074.063-.152-.149-.274-.3-.555-.452-.826-.035-.042-.083-.077-.141,0a.325.325,0,0,0-.11.248c.013.2.048.4.06.6.061.335.121.675.182,1.015.056.722.072,1.382.128,2.1-.009.3-.1.711-.2.748,0,0-.132.083-.224,0a2.711,2.711,0,0,1-.331-.44.2.2,0,0,0-.323,0,4.468,4.468,0,0,0-.565,1.065c-.048.072-.179.138-.323-.006a1.51,1.51,0,0,1-.2-1.042" fill="#fff"/>
              <path id="Path_174" data-name="Path 174" d="M1234.934,9226.182a.615.615,0,0,1,.249.578c-.034.207-.123.437-.188.4s.047-.206-.019-.4c-.04-.122-.269-.344-.245-.412-.049-.139.1-.2.2-.175" fill="#fff"/>
              <path id="Path_175" data-name="Path 175" d="M1237.07,9230.6a4.972,4.972,0,0,0-.036-.908c-.01-.239-.272-2.209-.327-2.394-.064-.344.256-.045.22-.247-.111-.253-.386-.625-.471-.845-.055-.1-.032-.179-.149-.023a1.943,1.943,0,0,0-.1.863,18.8,18.8,0,0,1,.52,4.151c.131,0,.283-.3.348-.6" fill="#fff"/>
              <path id="Path_176" data-name="Path 176" d="M1239.965,9226.668c.158.083.248.51.231.634-.03.226-.112.468-.171.437s.012-.335-.019-.428c-.036-.133-.245-.376-.224-.449a.15.15,0,0,1,.183-.193" fill="#fff"/>
              <path id="Path_177" data-name="Path 177" d="M1228.477,9229.818c.146.055.234.372.217.464-.03.165-.108.34-.163.32s.013-.247-.018-.316c-.012-.169-.217-.257-.213-.33-.039-.133.084-.156.177-.138" fill="#fff"/>
              <path id="Path_178" data-name="Path 178" d="M1224.524,9226.076c.218.063.231.386.217.481-.03.17-.108.354-.165.331s0-.253-.031-.325c-.031-.106-.216-.285-.194-.341-.043-.114.082-.17.173-.146" fill="#fff"/>
              <path id="Path_179" data-name="Path 179" d="M1228.833,9227.591a.389.389,0,0,0-.127.52.255.255,0,0,0,.27.083c.165.022.262-.309.262-.309s.005-.092-.188.083c-.083.019-.093-.014-.115-.06a.415.415,0,0,1,.025-.257c.03-.083-.033-.119-.127-.061" fill="#fff"/>
              <path id="Path_180" data-name="Path 180" d="M1230.088,9225.952a.6.6,0,0,0-.255.432c-.007.11-.028.11.046.184.055.079.109.068.215.01a.227.227,0,0,0,.1-.147c.026-.129-.134.06-.156-.083s.067-.184.166-.316c0-.087,0-.147-.12-.078" fill="#fff"/>
              <path id="Path_181" data-name="Path 181" d="M1231.1,9226.131a2.67,2.67,0,0,0-.073.5c-.03.124.132.179.2.019a1.477,1.477,0,0,0,.115-.547c-.033-.188-.161-.179-.245.027" fill="#fff"/>
              <path id="Path_182" data-name="Path 182" d="M1237.479,9229.377c.023-.018.9-.642.9-.642.09-.033.071.32.03.315a3.455,3.455,0,0,1-.928.648c-.043.026-.086-.244,0-.322" fill="#fff"/>
              <path id="Path_183" data-name="Path 183" d="M1238.279,9229.373c.156.078.217.528.2.652.006.238-.149.431-.208.4s.007-.3-.023-.395c-.037-.133-.169-.381-.146-.455a.152.152,0,0,1,.178-.206" fill="#fff"/>
              <path id="Path_184" data-name="Path 184" d="M1233.063,9231.32a1.285,1.285,0,0,1,.249-.217.15.15,0,0,1,.17.032c.015.083-.054.165-.032.28.017.046.032.1.117.078a.587.587,0,0,1,.407-.119c.109,0,.111.183.045.183a3.075,3.075,0,0,0-.557.2.124.124,0,0,1-.16-.022.16.16,0,0,1-.016-.161c.008-.092-.03-.143-.108-.139-.059.037-.109.056-.138-.009-.01-.05-.015-.078.023-.1" fill="#fff"/>
              <path id="Path_185" data-name="Path 185" d="M1239.2,9231.563a.113.113,0,0,1,0,.17c-.063.06-.1.087-.167.146-.028.05-.046.124.041.147.163.045.543-.2.543-.207a.114.114,0,0,0,.036-.134c-.036-.04-.115-.018-.169-.018-.028,0-.111-.019-.071-.088a.673.673,0,0,0,.069-.133c.024-.061,0-.1-.091-.128a.751.751,0,0,0-.234,0c-.056.013-.076.041-.086.1,0,.1.066.1.132.139" fill="#fff"/>
            </g>
          </g>
        </g>
      </g>
    </g>
  </g>
</svg>
