<svg xmlns="http://www.w3.org/2000/svg" xmlns:xlink="http://www.w3.org/1999/xlink" width="73.082" height="63.793" viewBox="0 0 73.082 63.793">
  <defs>
    <linearGradient id="linear-gradient" x1="-0.051" y1="0.41" x2="0.996" y2="0.549" gradientUnits="objectBoundingBox">
      <stop offset="0.041" stop-color="#6bc07a"/>
      <stop offset="0.492" stop-color="#32c0c6"/>
      <stop offset="1" stop-color="#449ad5"/>
    </linearGradient>
    <linearGradient id="linear-gradient-2" x1="-1.453" y1="0.215" x2="1.326" y2="0.685" xlink:href="#linear-gradient"/>
    <linearGradient id="linear-gradient-3" x1="-1.393" y1="0.306" x2="2.279" y2="0.655" xlink:href="#linear-gradient"/>
    <linearGradient id="linear-gradient-4" x1="-0.947" y1="0.157" x2="2.677" y2="0.933" xlink:href="#linear-gradient"/>
  </defs>
  <g id="Group_131" data-name="Group 131" transform="translate(-1539.96 -8728.935)">
    <path id="Path_220" data-name="Path 220" d="M1576.49,8738.943c1.082-.888,2.147-1.692,3.135-2.584a34.6,34.6,0,0,1,9.393-6.27,14.93,14.93,0,0,1,9.513-.668,18.005,18.005,0,0,1,11.5,7.917,18.246,18.246,0,0,1,2.16,15.634,31.575,31.575,0,0,1-5.6,10.229,103.262,103.262,0,0,1-10.735,11.792c-3.669,3.506-7.416,6.932-11.118,10.4-2.277,2.134-4.536,4.286-6.8,6.435-1.269,1.205-1.582,1.2-2.877-.045-3.178-3.055-6.27-6.207-9.561-9.135-4.806-4.274-9.5-8.666-13.942-13.309a59.927,59.927,0,0,1-8.891-11.606,19.741,19.741,0,0,1-2.533-12.545,19.119,19.119,0,0,1,3.664-8.7,18.166,18.166,0,0,1,10.862-7,16.9,16.9,0,0,1,15.716,3.853c1.769,1.5,3.417,3.148,5.123,4.726C1575.8,8738.357,1576.123,8738.624,1576.49,8738.943Zm-.037,2.7c-1.934-1.677-3.69-3.283-5.538-4.777a51.538,51.538,0,0,0-5.155-3.79,11.232,11.232,0,0,0-4.194-1.766,16.974,16.974,0,0,0-19.12,13.323c-.312,1.531-.816,3.11-.425,4.707a45.8,45.8,0,0,0,1.411,4.915,16.823,16.823,0,0,0,3.3,5.655c3.916,0,7.779,0,11.642,0a5.784,5.784,0,0,0,2-.111c.565-.219.981-.82,1.559-1.339l.986,1.846-1.1,1.485h-4.674c-1.472,0-2.945-.043-4.416.013s-2.989-.25-4.665.271c1.411,1.712,2.591,3.345,3.975,4.781q4.661,4.835,9.5,9.5c2.685,2.584,5.5,5.033,8.243,7.561,2.158,1.99,4.291,4.009,6.442,6.008.077.072.225.069.427.125.191-.156.436-.329.651-.535q4.645-4.443,9.285-8.895c.133-.127.259-.263.394-.387,2.837-2.6,5.726-5.153,8.494-7.828,1.977-1.911,3.8-3.988,5.681-5.993a48.279,48.279,0,0,0,7.852-10.991,17.794,17.794,0,0,0,1.316-12.3,13.941,13.941,0,0,0-4.68-7.925,16.16,16.16,0,0,0-7.668-3.659,13.8,13.8,0,0,0-7.392.337,28.516,28.516,0,0,0-7.544,4.459C1580.869,8738,1578.769,8739.761,1576.453,8741.639Z" fill="url(#linear-gradient)"/>
    <path id="Path_221" data-name="Path 221" d="M1587.229,8748.2c2.49-.23,4.536.373,5.959,2.153a5.515,5.515,0,0,1,.775,6.006l2.145,3.464,2.083.106a12.585,12.585,0,0,1,.967-1.094,3.007,3.007,0,0,1,3.576-.364,2.84,2.84,0,0,1,1.373,2.8,3.1,3.1,0,0,1-2.605,2.491,4.454,4.454,0,0,1-2.012-.6,5.229,5.229,0,0,1-1.1-.987H1596.3c-.481.891-.9,1.836-1.469,2.681a4.363,4.363,0,0,1-3.7,2.056c-4.656.028-9.312.008-13.967,0a2.819,2.819,0,0,1-.561-.179l2.19-3.883h1.814c3,0,6-.011,9.005.007,1.068.006,1.945-.23,2.276-1.417-.189-.911-.605-1.541-1.679-1.578-.844-.03-1.683-.263-2.527-.278-2.189-.042-4.38-.014-6.571-.014-.139-1.032.52-1.5.858-2.117.323-.587.623-1.187,1.024-1.956,1.658,0,3.359.019,5.06,0,1.878-.026,2.276-.6,1.82-2.627-1.484-.759-3.215.064-4.964-.585Z" fill="url(#linear-gradient-2)"/>
    <path id="Path_222" data-name="Path 222" d="M1581.68,8748.192h4.349c-1.471,3.029-3.283,5.68-4.787,8.491s-3.206,5.484-4.8,8.229c-1.627,2.8-3.231,5.606-4.976,8.639-2.317-3.421-4.017-7.056-6.273-10.575l2.17-3.815,4.068,6.758Z" fill="url(#linear-gradient-3)"/>
    <path id="Path_223" data-name="Path 223" d="M1567.246,8752.915l-3.868,6.7c-2.266-3.788-4.449-7.4-6.53-11.366h4.164l2.339,3.593,2.329-3.613h3.413l2.224,3.743,2.334-3.737h4.308c-2.231,3.735-4.107,7.47-6.487,11.079C1569.683,8757.292,1569.047,8754.758,1567.246,8752.915Z" fill="url(#linear-gradient-4)"/>
  </g>
</svg>
