<svg xmlns="http://www.w3.org/2000/svg" width="166.018" height="23.703" viewBox="0 0 166.018 23.703">
  <g id="Group_135" data-name="Group 135" transform="translate(-306.101 -8746.704)">
    <path id="Path_226" data-name="Path 226" d="M306.1,8769.8c.812-1.182,1.634-2.357,2.435-3.547q4.881-7.247,9.746-14.5a.826.826,0,0,1,.806-.425c.938.025,1.878.008,2.9.008v10.338l.119.03c.1-.14.213-.274.309-.418q3.173-4.733,6.335-9.471a.9.9,0,0,1,.882-.491c.919.04,1.842.012,2.818.012v18.56h-3.954v-10.552c-.216.291-.337.44-.442.6q-3.158,4.775-6.3,9.556a.855.855,0,0,1-.848.445c-.955-.028-1.911-.009-2.937-.009v-10.349l-.113-.031-.475.712q-3.08,4.627-6.154,9.258a.775.775,0,0,1-.75.419c-1.457-.028-2.914-.021-4.371-.027Z" fill="#fff"/>
    <path id="Path_227" data-name="Path 227" d="M407.987,8759.407c-.125.172-.257.34-.375.517q-3.145,4.718-6.279,9.441a.945.945,0,0,1-.935.511,20.672,20.672,0,0,0-2.268,0c-.52.03-.555-.224-.554-.632q.014-7.831.006-15.662c0-.572.01-1.144,0-1.715-.008-.31.113-.434.42-.432,1.014.008,2.029.016,3.043,0,.449-.008.447.257.446.576q-.006,3.568,0,7.14,0,1.244.008,2.489a1.72,1.72,0,0,0,.092.32c.182-.236.317-.392.43-.562,2.094-3.146,4.193-6.287,6.27-9.445a1,1,0,0,1,.99-.521c.7.034,1.4.034,2.1,0,.477-.022.637.125.634.621-.021,3.063-.012,6.125-.009,9.188,0,.208.022.417.034.625l.176.06,7.05-10.6h-1.825l-.048-.149,7.291-4.472,1.178,4.572c-.481,0-.894.027-1.3-.009a.936.936,0,0,0-.945.5q-5.789,8.672-11.587,17.337a1.351,1.351,0,0,1-1.412.771,9.81,9.81,0,0,0-1.824,0c-.5.033-.624-.156-.621-.632.018-3.043.01-6.087.006-9.131,0-.227-.036-.451-.056-.678Z" fill="#36aa45"/>
    <path id="Path_228" data-name="Path 228" d="M346.03,8757.825l.275-1.285h3.9l-2.459,13.325h-3.931l.169-1.224a9.535,9.535,0,0,1-1.011.81,5.957,5.957,0,0,1-6.063.242,4.951,4.951,0,0,1-2.652-4.875,8.5,8.5,0,0,1,5.22-8.1,7.955,7.955,0,0,1,2.393-.607A4.226,4.226,0,0,1,346.03,8757.825Zm-4.883,8.8a4.17,4.17,0,0,0,3.91-3.567,2.693,2.693,0,0,0-3.245-3.157,4.157,4.157,0,0,0-3.439,3.61A2.628,2.628,0,0,0,341.147,8766.624Z" fill="#fff"/>
    <path id="Path_229" data-name="Path 229" d="M430.626,8758.127a7.814,7.814,0,0,1,.275-1.085.625.625,0,0,1,.416-.354c1.1-.03,2.209-.017,3.414-.017-.1.606-.174,1.176-.281,1.741-.69,3.644-1.393,7.285-2.07,10.931-.071.385-.2.536-.6.528-1.081-.021-2.164-.007-3.295-.007l.207-1.43c-.212.186-.32.27-.416.365a5.834,5.834,0,0,1-7.994-.063,5.01,5.01,0,0,1-1.324-3.035,8.653,8.653,0,0,1,6.463-9.321,6.094,6.094,0,0,1,3.11.028A3.484,3.484,0,0,1,430.626,8758.127Zm-.943,4.451a2.593,2.593,0,0,0-2.748-2.786,4.206,4.206,0,0,0-4.085,3.647,2.682,2.682,0,0,0,2.108,3.193A4.136,4.136,0,0,0,429.683,8762.578Z" fill="#36aa45"/>
    <path id="Path_230" data-name="Path 230" d="M465.473,8751.437l-1.159,6.407.129.075c.113-.121.235-.235.336-.365,1.4-1.787,4.605-1.8,6.171-.482a3.359,3.359,0,0,1,1.112,3.257c-.484,3.01-1.073,6-1.6,9.008-.063.364-.224.452-.547.449q-1.438-.013-2.877,0c-.367,0-.519-.054-.431-.5.46-2.361.9-4.729,1.294-7.1a3.2,3.2,0,0,0-.109-1.405c-.272-.905-1.325-1.267-2.468-.911a2.969,2.969,0,0,0-1.948,2.65c-.428,2.237-.835,4.479-1.245,6.72-.068.369-.205.577-.647.56-.921-.036-1.844-.017-2.766-.008-.378,0-.51-.083-.428-.52q1.6-8.5,3.16-17.017c.15-.81.145-.812.97-.812Z" fill="#36aa45"/>
    <path id="Path_231" data-name="Path 231" d="M362.334,8751.355h4.052l-1.878,10.1c.935-.975,1.76-1.834,2.583-2.7.611-.64,1.212-1.289,1.832-1.92a.773.773,0,0,1,.454-.261c1.453-.02,2.906-.012,4.369-.012-.554.592-1.062,1.179-1.617,1.718q-2,1.945-4.045,3.85a.509.509,0,0,0-.115.71c1.036,2.157,2.053,4.323,3.076,6.487.077.164.147.332.261.591h-1.185c-.941,0-1.882-.025-2.822.012a.675.675,0,0,1-.754-.525c-.691-1.766-1.406-3.522-2.115-5.281-.066-.163-.147-.321-.281-.61-.328,1.74-.638,3.34-.928,4.941-.265,1.462-.255,1.465-1.724,1.463-.793,0-1.586,0-2.378-.01a.847.847,0,0,1-.172-.061Z" fill="#fff"/>
    <path id="Path_232" data-name="Path 232" d="M375.766,8764.5a2.151,2.151,0,0,0,1.518,2.3,3.372,3.372,0,0,0,3.443-.75,1.379,1.379,0,0,1,.815-.318c1.156-.035,2.315-.016,3.663-.016-.527.664-.928,1.25-1.409,1.761a8.213,8.213,0,0,1-5.723,2.871,5.707,5.707,0,0,1-6.207-6.514,9.038,9.038,0,0,1,8.074-7.757,5.676,5.676,0,0,1,6.143,6.607c-.221,1.814-.221,1.814-2.043,1.814h-8.274Zm6.512-2.794a2.128,2.128,0,0,0-1.649-2.091,3.638,3.638,0,0,0-2.92.464,3.3,3.3,0,0,0-1.379,1.627Z" fill="#fff"/>
    <path id="Path_233" data-name="Path 233" d="M457.728,8764.859a8.717,8.717,0,0,1-2.64,3.491,8.1,8.1,0,0,1-5.5,1.947,5.56,5.56,0,0,1-5.653-5.689,8.716,8.716,0,0,1,7.724-8.408c2.44-.183,4.511.471,5.83,2.649a9.449,9.449,0,0,1,.769,2.277c.108.374-.052.569-.493.556-.977-.028-1.955,0-2.932-.021a.72.72,0,0,1-.534-.25,2.788,2.788,0,0,0-3.544-1.5,4.272,4.272,0,0,0-2.834,4.742,2.666,2.666,0,0,0,3.439,1.925,4.137,4.137,0,0,0,2.165-1.353,1.15,1.15,0,0,1,.734-.348C455.377,8764.838,456.5,8764.859,457.728,8764.859Z" fill="#36aa45"/>
    <path id="Path_234" data-name="Path 234" d="M394.331,8752.669l-.7,3.884h2.492l-.581,3.026H393c-.229,1.21-.452,2.379-.672,3.548-.395,2.1-.8,4.2-1.172,6.3-.066.367-.2.48-.566.473-1.14-.023-2.28-.009-3.53-.009.325-1.753.638-3.441.952-5.131s.632-3.4.961-5.161h-1.958c.2-.965.372-1.865.578-2.761a.472.472,0,0,1,.328-.29,2.819,2.819,0,0,0,2.713-2.826c.042-.344.117-.685.18-1.052Z" fill="#fff"/>
    <path id="Path_235" data-name="Path 235" d="M435.895,8769.783c.318-1.708.615-3.314.916-4.919.3-1.625.607-3.251.922-4.874.073-.378-.078-.508-.432-.5s-.7,0-1.052,0c-.281,0-.4-.1-.332-.409.149-.663.241-1.339.418-1.994a.806.806,0,0,1,.475-.489c1.779-.464,2.283-1.03,2.606-2.89.21-1.212-.07-1,1.2-1.016.736-.012,1.472,0,2.312,0l-.676,3.943h2.473c-.166.93-.3,1.773-.483,2.607-.024.108-.273.229-.424.238a14.649,14.649,0,0,1-1.6.008c-.427-.024-.585.184-.654.561-.554,3.018-1.122,6.034-1.668,9.053-.087.482-.233.734-.8.7C438.062,8769.742,437.03,8769.783,435.895,8769.783Z" fill="#36aa45"/>
    <path id="Path_236" data-name="Path 236" d="M356.17,8756.57l-.16,1.1a4.685,4.685,0,0,1,3.673-1.589l-.711,4.014c-.488.061-.944.1-1.393.174a2.41,2.41,0,0,0-2.139,2.074q-.691,3.633-1.384,7.268c-.017.088-.037.175-.061.287h-4.038c.228-1.231.447-2.435.673-3.638q.867-4.611,1.736-9.222c.045-.239.044-.477.4-.472C353.868,8756.578,354.973,8756.57,356.17,8756.57Z" fill="#fff"/>
  </g>
</svg>
