<svg xmlns="http://www.w3.org/2000/svg" width="88.701" height="32.492" viewBox="0 0 88.701 32.492">
  <path id="Path_219" data-name="Path 219" d="M750.925,8750.7v9.78h4.812v-3.729c0-2.465.013-3.821.037-4a2.523,2.523,0,0,1,.368-1.028,1.621,1.621,0,0,1,2.941.808c.023.145.036,1.622.036,4.088v3.862h4.812v-4.508c0-3.8-.008-4.576-.053-4.957a5.175,5.175,0,0,0-1.393-3.177,4.206,4.206,0,0,0-2.519-1.2,7.889,7.889,0,0,0-1.753.056,4.212,4.212,0,0,0-2.171,1.175l-.34.338v-7.284h-4.777Zm51.152-9.632c-.131.3-5.022,12.125-5.022,12.142s1.282.014,2.848.009l2.849-.009,2.536-6.119c1.395-3.366,2.537-6.131,2.539-6.145s-1.278-.027-2.842-.027h-2.843Zm-61.7,5.556a6.225,6.225,0,0,0-2.672.986,7.156,7.156,0,0,0-3.032,4.97,8.588,8.588,0,0,0,.156,3.112,6.652,6.652,0,0,0,4.237,4.823,7.482,7.482,0,0,0,3.072.23,4.33,4.33,0,0,0,2.275-1.175l.3-.309v1.218h4.637V8746.92h-4.637v1.249l-.218-.229a4.466,4.466,0,0,0-2.258-1.22,4.115,4.115,0,0,0-1.063-.1C740.8,8746.617,740.436,8746.619,740.378,8746.627Zm30.719.037a7.49,7.49,0,0,0-3.625,1.541,7.15,7.15,0,0,0-2.475,6.629,6.93,6.93,0,0,0,5.227,5.771,7.414,7.414,0,0,0,1.948.227,7.125,7.125,0,0,0,3.413-.771,6.883,6.883,0,0,0,3.778-5.282,9.192,9.192,0,0,0,0-2.123,7.221,7.221,0,0,0-1.261-3.158,8.778,8.778,0,0,0-1.287-1.34,7.329,7.329,0,0,0-3.6-1.5A10.693,10.693,0,0,0,771.1,8746.664Zm15.307,0a7.407,7.407,0,0,0-3.558,1.493,8.822,8.822,0,0,0-1.287,1.34,7.219,7.219,0,0,0-1.26,3.158,9.137,9.137,0,0,0,0,2.123,7.115,7.115,0,0,0,7.191,6.054,7.362,7.362,0,0,0,3.483-.8,7.069,7.069,0,0,0,3.622-7.809,6.967,6.967,0,0,0-6.094-5.56A10.652,10.652,0,0,0,786.4,8746.664Zm-67.278.274c0,.011,1.3,3.08,2.883,6.822s2.881,6.821,2.881,6.842-.467,1.134-1.035,2.475-1.033,2.441-1.033,2.449,1.149.009,2.554,0l2.553-.009,3.842-9.258c2.114-5.092,3.844-9.276,3.845-9.3a19.609,19.609,0,0,0-2.53-.035l-2.532.009L729,8750.883c-.856,2.17-1.564,3.938-1.573,3.928s-.708-1.784-1.553-3.944l-1.536-3.93-2.6-.009C720.3,8746.923,719.126,8746.928,719.126,8746.938Zm23.6,4.1a2.709,2.709,0,0,1,1.994,1.966,3.341,3.341,0,0,1,0,1.429,2.735,2.735,0,0,1-1.975,1.975,3.378,3.378,0,0,1-1.43,0,2.81,2.81,0,0,1-1.875-1.616,2.917,2.917,0,0,1,.26-2.631A2.8,2.8,0,0,1,742.73,8751.038Zm29.953.01a2.643,2.643,0,0,1,2.114,2.03,3.435,3.435,0,0,1-.019,1.354,2.675,2.675,0,0,1-1.886,1.924,3.954,3.954,0,0,1-1.43,0,2.642,2.642,0,0,1-1.71-1.436,2.987,2.987,0,0,1-.054-2.29,2.681,2.681,0,0,1,.978-1.2A2.847,2.847,0,0,1,772.683,8751.048Zm15.306,0a2.607,2.607,0,0,1,1.973,1.584,2.988,2.988,0,0,1-.054,2.29,2.638,2.638,0,0,1-1.71,1.436,3.949,3.949,0,0,1-1.429,0,2.678,2.678,0,0,1-1.887-1.924,3.323,3.323,0,0,1,0-1.425,2.643,2.643,0,0,1,2.584-2A3.636,3.636,0,0,1,787.989,8751.048Zm10.2,3.357a3.246,3.246,0,0,0-2.8,2.534,3.853,3.853,0,0,0,.019,1.428,3.085,3.085,0,0,0,2.385,2.3,3.917,3.917,0,0,0,.655.055,3.2,3.2,0,0,0,1.745-5.885A3.31,3.31,0,0,0,798.188,8754.405Zm-39.635,7.363a1.564,1.564,0,0,0-.888,2.278,1.867,1.867,0,0,0,.713.63,1.958,1.958,0,0,0,1.31,0,1.8,1.8,0,0,0,.772-.757,1.543,1.543,0,0,0-.768-2.066,1.153,1.153,0,0,0-.6-.138A1.341,1.341,0,0,0,758.553,8761.769Zm-4.019.073a3.013,3.013,0,0,0-2.46,2.376,4.124,4.124,0,0,0-.093.789l-.019.5h-1.038l.01,1.143.009,1.142.514.009.514.01v5.4h2.79v-5.4l.95-.009.95-.009.009-1.142.009-1.143h-1.922l.024-.253a1,1,0,0,1,.72-1.007,1.856,1.856,0,0,1,1.052.037c.113.04.211.071.218.071s.012-.523.012-1.164v-1.166l-.2-.075a3.22,3.22,0,0,0-1.224-.171A4.483,4.483,0,0,0,754.534,8761.842Zm11.419,3.5a2.283,2.283,0,0,0-1.375.826l-.159.211v-.878h-2.824v7.705h2.824v-2.1c0-1.208.015-2.19.035-2.311a1.342,1.342,0,0,1,.367-.73.962.962,0,0,1,1.32.149c.212.306.209.266.222,2.734l.013,2.257h2.82v-2.529c0-2.682-.014-2.988-.161-3.5a2.487,2.487,0,0,0-.675-1.157,2.184,2.184,0,0,0-1.048-.626A3.758,3.758,0,0,0,765.953,8765.345Zm7.13-.024a3.974,3.974,0,0,0-1.493.592,4.1,4.1,0,0,0-1.583,2.607,6.077,6.077,0,0,0,0,1.7,4.391,4.391,0,0,0,.789,1.828,3.466,3.466,0,0,0,2.05,1.3,4.011,4.011,0,0,0,1.558-.039,2.636,2.636,0,0,0,1.1-.617l.282-.266v.774h2.789V8765.5h-2.789v.8l-.183-.194a2.635,2.635,0,0,0-1.481-.761A4.39,4.39,0,0,0,773.083,8765.32Zm10.949.03a2.51,2.51,0,0,0-1.361.843l-.121.157v-.848l-1.421.009-1.421.01-.009,3.844-.008,3.844h2.859v-2.187c0-2.314,0-2.362.166-2.677a.865.865,0,0,1,.789-.47.792.792,0,0,1,.652.243c.3.3.291.19.3,2.8l.01,2.292h2.825l-.012-2.8a14.984,14.984,0,0,0-.089-3.094,4.514,4.514,0,0,0-.252-.654,1.851,1.851,0,0,0-.445-.627,2.178,2.178,0,0,0-.864-.571A3.229,3.229,0,0,0,784.032,8765.351Zm7.444,0a3.977,3.977,0,0,0-2.867,1.883,4.128,4.128,0,0,0-.434,1.088,3.08,3.08,0,0,0-.1,1.021,3.713,3.713,0,0,0,.194,1.436,3.828,3.828,0,0,0,2.926,2.562,4.274,4.274,0,0,0,.959.064,3.4,3.4,0,0,0,1.569-.272l.279-.114.009-1.295.009-1.295-.236.138a2.062,2.062,0,0,1-1.055.3,1.769,1.769,0,0,1-1.007-.186,1.476,1.476,0,0,1-.677-.7,1.008,1.008,0,0,1-.111-.6,1.31,1.31,0,0,1,.081-.567,1.6,1.6,0,0,1,1.5-.958,2.426,2.426,0,0,1,1.473.4c.014.007.026-.567.026-1.276v-1.289l-.222-.09A4.678,4.678,0,0,0,791.476,8765.348Zm6.419,0a4.237,4.237,0,0,0-2.7,6.427,3.716,3.716,0,0,0,2.417,1.562,7.4,7.4,0,0,0,2.162-.017,3.965,3.965,0,0,0,1.964-1.029,3.222,3.222,0,0,0,.578-.768c-.008-.009-.548-.22-1.2-.471l-1.186-.456-.174.178a1.3,1.3,0,0,1-.661.395,1.4,1.4,0,0,1-1.794-.941l-.029-.154,2.654-.009,2.654-.01,0-.645a4.462,4.462,0,0,0-.064-.94,3.96,3.96,0,0,0-1.082-2.077,3.7,3.7,0,0,0-1.92-1.012A6.181,6.181,0,0,0,797.9,8765.348Zm-40.275,4.01v3.852h2.824V8765.5H757.62Zm41.405-1.859a1.162,1.162,0,0,1,.814.827l.033.143h-1.287c-1.451,0-1.335.028-1.212-.3A1.35,1.35,0,0,1,799.025,8767.5Zm-24.3.383a1.633,1.633,0,0,1,.97.8,1.54,1.54,0,0,1-.874,2.128,1.968,1.968,0,0,1-1.024.021,1.575,1.575,0,0,1-1.011-1.009,1.358,1.358,0,0,1-.059-.552,1.1,1.1,0,0,1,.142-.566A1.586,1.586,0,0,1,774.722,8767.881Z" transform="translate(-719.126 -8740.922)" fill="#fff" fill-rule="evenodd"/>
</svg>
