<svg xmlns="http://www.w3.org/2000/svg" width="85.834" height="31.41" viewBox="0 0 85.834 31.41">
  <g id="Group_130" data-name="Group 130" transform="translate(-855.075 -8740.872)">
    <path id="Path_214" data-name="Path 214" d="M935.382,8740.872l-4.941,11.88h5.5l4.972-11.88Zm-6.6,16.14a2.974,2.974,0,0,0,2.931,3.016h.073a3.141,3.141,0,0,0,3.141-3.141,2.964,2.964,0,0,0-2.92-3h-.1a3.14,3.14,0,0,0-3.14,3.141Zm-4.972-3.768a2.617,2.617,0,1,0-2.617,2.617,2.617,2.617,0,0,0,2.617-2.617m-14.811,0a2.617,2.617,0,1,0-2.617,2.617,2.617,2.617,0,0,0,2.617-2.617m-31.769,2.7a2.7,2.7,0,1,1,2.7-2.7,2.671,2.671,0,0,1-2.638,2.7h-.063m-22.16-9.265,5.6,13.21-2.02,4.764h4.92l7.463-17.974h-4.9l-3.036,7.694-3-7.694Zm58.325,6.563a7.013,7.013,0,1,1-7.013-7.013,7.013,7.013,0,0,1,7.013,7.013m14.812,0a7.013,7.013,0,1,1-7.014-7.013,7.013,7.013,0,0,1,7.014,7.013m-42.362-12.372v18.914h4.626V8752.8c0-1.359.66-2.177,1.707-2.177s1.622.712,1.622,2.021v7.139h4.627v-8.238c0-3.14-1.717-5.181-4.491-5.181a4.188,4.188,0,0,0-3.454,1.591v-7.086Zm-6.019,5.809v1.226a4.486,4.486,0,0,0-3.538-1.539c-3.58,0-6.281,3.14-6.281,6.877s2.638,6.888,6.281,6.888a4.343,4.343,0,0,0,3.538-1.57v1.225h4.47v-13.105Z" fill="#845ada"/>
    <path id="Path_215" data-name="Path 215" d="M903.226,8764.947a2.309,2.309,0,0,1,1.821.785,3.484,3.484,0,0,1,.649,2.354v4h-2.554v-3.727c0-.618-.293-.932-.858-.932a.89.89,0,0,0-.7.293,1.259,1.259,0,0,0-.24.807v3.559h-2.554v-6.92h2.554v.67a2.176,2.176,0,0,1,1.884-.889" fill="#fff"/>
    <path id="Path_216" data-name="Path 216" d="M908.993,8769.49a1.4,1.4,0,0,0,1.413.689,1.819,1.819,0,0,0,1.194-.438l1.674,1.413a3.824,3.824,0,0,1-2.951,1.12,3.954,3.954,0,0,1-2.847-1.048,3.468,3.468,0,0,1-1.047-2.6,3.58,3.58,0,0,1,3.473-3.684c.06,0,.12,0,.18,0a3.5,3.5,0,0,1,3.612,3.4c0,.082,0,.164,0,.245a3.6,3.6,0,0,1-.1.9Zm0-1.645h2.324a1.047,1.047,0,0,0-1.162-.806,1.174,1.174,0,0,0-1.2.806Z" fill="#fff"/>
    <path id="Path_217" data-name="Path 217" d="M922.13,8765.166h2.7l-2.01,6.92h-2.6l-.858-3.256-.858,3.256h-2.6l-2.01-6.92h2.7l.8,3.832,1.047-3.832h1.937l1.047,3.832Z" fill="#fff"/>
    <path id="Path_218" data-name="Path 218" d="M927.72,8767.2c0,.114.083.2.261.262a2.766,2.766,0,0,0,.639.146,4.445,4.445,0,0,1,.827.188,5.063,5.063,0,0,1,.837.345,1.63,1.63,0,0,1,.639.66,2.365,2.365,0,0,1,0,2.24,1.939,1.939,0,0,1-.785.753,4.334,4.334,0,0,1-.984.367,4.843,4.843,0,0,1-1.047.115c-1.664,0-2.743-.544-3.235-1.644l2.23-1a.962.962,0,0,0,.984.7c.3,0,.461-.1.461-.3s-.116-.22-.346-.293l-.9-.23a5.935,5.935,0,0,1-.973-.313,1.983,1.983,0,0,1-.838-.67,1.953,1.953,0,0,1-.283-1.174,2.033,2.033,0,0,1,.869-1.758,3.3,3.3,0,0,1,2-.628,2.9,2.9,0,0,1,2.993,1.758l-2.093.765a.818.818,0,0,0-.775-.586c-.335,0-.481.136-.481.293" fill="#fff"/>
  </g>
</svg>
